<svg id="Cement" enable-background="new 0 0 512 512" height="512" viewBox="0 0 512 512" width="512" xmlns="http://www.w3.org/2000/svg">
	<g fill="#c1b49a">
		<path d="m40 416h-32c-4.4179688 0-8-3.5820313-8-8s3.5820313-8 8-8h32c4.4179688 0 8 3.5820313 8 8s-3.5820312 8-8 8z" />
		<path d="m504 416h-32c-4.4179688 0-8-3.5820313-8-8s3.5820313-8 8-8h32c4.4179688 0 8 3.5820313 8 8s-3.5820312 8-8 8z" />
		<path d="m40 352h-32c-4.4179688 0-8-3.5820313-8-8s3.5820313-8 8-8h32c4.4179688 0 8 3.5820313 8 8s-3.5820312 8-8 8z" />
		<path d="m504 352h-32c-4.4179688 0-8-3.5820313-8-8s3.5820313-8 8-8h32c4.4179688 0 8 3.5820313 8 8s-3.5820312 8-8 8z" />
		<path d="m40 288h-32c-4.4179688 0-8-3.5820313-8-8s3.5820313-8 8-8h32c4.4179688 0 8 3.5820313 8 8s-3.5820312 8-8 8z" />
		<path d="m504 288h-32c-4.4179688 0-8-3.5820313-8-8s3.5820313-8 8-8h32c4.4179688 0 8 3.5820313 8 8s-3.5820312 8-8 8z" />
		<path d="m40 224h-32c-4.4179688 0-8-3.5820313-8-8s3.5820313-8 8-8h32c4.4179688 0 8 3.5820313 8 8s-3.5820312 8-8 8z" />
		<path d="m504 224h-32c-4.4179688 0-8-3.5820313-8-8s3.5820313-8 8-8h32c4.4179688 0 8 3.5820313 8 8s-3.5820312 8-8 8z" />
	</g>
	<path d="m478.4299316 216-17.3498535-17.6646576c-9.040039-9.2039337-21.2001953-14.3353424-34-14.3353424h-344.1601562c-12.7998047 0-24.9599609 5.1314087-34 14.3353424l-17.3498535 17.6646576z" fill="#ded7cb" />
	<path d="m478.4299316 280-17.3498535-17.6646423c-9.0400391-9.203949-21.2001953-14.3353577-34-14.3353577h-344.1601562c-12.7998047 0-24.9599609 5.1314087-34 14.3353577l-17.3498535 17.6646423z" fill="#ded7cb" />
	<path d="m478.4299316 344-17.3498535-17.6646423c-9.0400391-9.203949-21.2001953-14.3353577-34-14.3353577h-344.1601562c-12.7998047 0-24.9599609 5.1314087-34 14.3353577l-17.3498535 17.6646423z" fill="#ded7cb" />
	<path d="m478.4299316 408-17.3498535-17.6646423c-9.0400391-9.203949-21.2001953-14.3353577-34-14.3353577h-344.1601562c-12.7998047 0-24.9599609 5.1314087-34 14.3353577l-17.3498535 17.6646423z" fill="#ded7cb" />
	<path d="m504 480h-32c-4.4179688 0-8-3.5820313-8-8s3.5820313-8 8-8h32c4.4179688 0 8 3.5820313 8 8s-3.5820312 8-8 8z" fill="#c1b49a" />
	<path d="m40 480h-32c-4.4179688 0-8-3.5820313-8-8s3.5820313-8 8-8h32c4.4179688 0 8 3.5820313 8 8s-3.5820312 8-8 8z" fill="#c1b49a" />
	<path d="m480.4299316 216-17.3498535 17.6646576c-9.040039 9.2039337-21.2001953 14.3353424-34 14.3353424h-344.1601562c-12.7998047 0-24.9599609-5.1314087-34-14.3353424l-17.3498535-17.6646576z" fill="#c1b49a" />
	<path d="m480.4299316 280-17.3498535 17.6646423c-9.0400391 9.203949-21.2001953 14.3353577-34 14.3353577h-344.1601562c-12.7998047 0-24.9599609-5.1314087-34-14.3353577l-17.3498535-17.6646423z" fill="#c1b49a" />
	<path d="m480.4299316 344-17.3498535 17.6646423c-9.0400391 9.203949-21.2001953 14.3353577-34 14.3353577h-344.1601562c-12.7998047 0-24.9599609-5.1314087-34-14.3353577l-17.3498535-17.6646423z" fill="#c1b49a" />
	<path d="m480.4299316 408-17.3498535 17.6646423c-9.0400391 9.203949-21.2001953 14.3353577-34 14.3353577h-344.1601562c-12.7998047 0-24.9599609-5.1314087-34-14.3353577l-17.3498535-17.6646423z" fill="#c1b49a" />
	<path d="m480.4299316 472-17.3498535 17.6646423c-9.0400391 9.203949-21.2001953 14.3353577-34 14.3353577h-344.1601562c-12.7998047 0-24.9599609-5.1314087-34-14.3353577l-17.3498535-17.6646423z" fill="#c1b49a" />
	<path d="m478.4299316 472-17.3498535-17.6646423c-9.0400391-9.203949-21.2001953-14.3353577-34-14.3353577h-344.1601562c-12.7998047 0-24.9599609 5.1314087-34 14.3353577l-17.3498535 17.6646423z" fill="#ded7cb" />
	<path
		d="m400 64c10.2399902-10.2399902 16-24.1601563 16-38.6401367v-17.3598633h-17.3598633c-14.4802246 0-28.4001465 5.7600098-38.6401367 16h-208c-10.2399902-10.2399902-24.1599121-16-38.6401367-16h-17.3598633v17.3598633c0 14.4799805 5.7600098 28.4001465 16 38.6401367v352c-10.2399902 10.2402344-16 24.1601563-16 38.6401367v17.3598633h17.3598633c14.4802246 0 28.4001465-5.7597656 38.6401367-16h208c10.2399902 10.2402344 24.1599121 16 38.6401367 16h17.3598633v-17.3598633c0-14.4799805-5.7600098-28.3999023-16-38.6401367z"
		fill="#fbe2bc"
	/>
	<path
		d="m416 25.3598633v-17.3598633h-17.3598633c-14.4802246 0-28.4001465 5.7600098-38.6401367 16h-48v312 .0000305c0 22.0913696-17.9085999 39.9999695-39.9999695 39.9999695h-.0000305-160v40c-10.2399902 10.2402344-16 24.1601563-16 38.6401367v17.3598633h17.3598633c14.4802246 0 28.4001465-5.7597656 38.6401367-16h208c10.2399902 10.2402344 24.1599121 16 38.6401367 16h17.3598633v-17.3598633c0-14.4799805-5.7600098-28.3999023-16-38.6401367v-352c10.2399902-10.2399902 16-24.1601562 16-38.6401367z"
		fill="#f9ce95"
	/>
	<path
		d="m360 456h-19.3200684l-2.3398438-2.3398438c-3.1201172-3.1303711-3.1201172-8.1904297 0-11.3203125 3.1298828-3.1201172 8.1899414-3.1201172 11.3198242 0l8 8c1.5600587 1.5600586 2.340088 3.6103516 2.340088 5.6601563z"
		fill="#c99d66"
	/>
	<path d="m400 396.6801758v19.3198242c-2.0500488 0-4.0900879-.7802734-5.6599121-2.3398438l-8-8c-3.1201172-3.1303711-3.1201172-8.1904297 0-11.3203125 3.1298828-3.1201172 8.1899414-3.1201172 11.3198242 0z" fill="#c99d66" />
	<path d="m184 24h144v48h-144z" fill="#387f29" />
	<path d="m184 408h144v48h-144z" fill="#387f29" />
	<path d="m328 112h-144c-4.4179688 0-8-3.5820313-8-8s3.5820313-8 8-8h144c4.4179688 0 8 3.5820313 8 8s-3.5820312 8-8 8z" fill="#387f29" />
	<path d="m328 144h-144c-4.4179688 0-8-3.5820313-8-8s3.5820313-8 8-8h144c4.4179688 0 8 3.5820313 8 8s-3.5820312 8-8 8z" fill="#387f29" />
	<path
		d="m144 352h20.3354492c5.5690918 9.753418 16.0522461 16 27.6645508 16s22.095459-6.246582 27.6645508-16h72.6708984c5.5690918 9.753418 16.0522461 16 27.6645508 16 17.6445313 0 32-14.3554688 32-32 0-7.9018555-2.8820801-15.4155273-8-21.1484375v-23.5371094l16 16v12.6855469c0 4.4179688 3.5820313 8 8 8s8-3.5820313 8-8v-15.9951172c0-.0029297 0-.0068359 0-.0097656v-63.9899902c0-.003418 0-.0068359 0-.0102539v-15.9948731c0-4.4179688-3.5820313-8-8-8s-8 3.5820313-8 8v12.6855469l-16 16v-28.6855469c0-4.4179688-3.5820313-8-8-8h-24.5178223c-3.8676758-30.8583984-29.7766113-54.9418945-61.4265137-55.9477539-.6809081-.034668-1.3662109-.0522461-2.055664-.0522461s-1.3747559.0175781-2.0556641.0522461c-31.6499023 1.0058594-57.5588379 25.0893555-61.4265136 55.9477539h-16.5178223c-2.1220703 0-4.15625.8427734-5.6572266 2.3427734l-24 24c-1.5 1.5009766-2.3427734 3.5351563-2.3427734 5.6572266v96c0 4.4179688 3.5820313 8 8 8zm216-92.6860352v25.3720703l-12.6865234-12.6860351zm-48-27.3139648h16v39.9951172.0097656 33.0195313c-2.590332-.6704102-5.2744141-1.0244141-8-1.0244141h-8zm-2.7451172 92.1923828c.0380859-.0332031.0771484-.0673828.1152344-.1025391 2.9121094-2.6376953 6.6875-4.0898437 10.6298828-4.0898437s7.7177734 1.4521484 10.6298828 4.0898438c.0380859.0351563.0771484.0693359.1152344.1025391 3.3398437 2.9091796 5.2548828 7.2128905 5.2548828 11.8076171 0 8.8222656-7.1777344 16-16 16-6.8007813 0-12.8251953-4.2548828-14.9912109-10.5888672-.0341797-.0996094-.0703125-.1982422-.1083984-.296875-.5976563-1.5458984-.9003907-3.2666015-.9003907-5.1142578 0-4.5947266 1.9150391-8.8984375 5.2548828-11.8076172zm-21.2548828 11.8076172h-64c0-5.8266602-1.572998-11.2890625-4.3051758-16h72.5734863c-2.7644042 4.7807617-4.2683105 10.2900391-4.2683105 16zm-40-160c13.2333984 0 24 10.7666016 24 24s-10.7666016 24-24 24-24-10.7666016-24-24 10.7666016-24 24-24zm-39.902832 21.3549805c-.0576172.8752441-.097168 1.7553711-.097168 2.6450195 0 22.0556641 17.9443359 40 40 40s40-17.9443359 40-40c0-.8896484-.0395508-1.7697754-.097168-2.6450195 5.1103516 7.6281738 8.097168 16.793457 8.097168 26.6450195 0 26.4677734-21.5322266 48-48 48s-48-21.5322266-48-48c0-9.8515625 2.9868164-19.0168457 8.097168-26.6450195zm-8.097168 68.9096679c11.7365723 13.3134766 28.8984375 21.7353516 48 21.7353516s36.2634277-8.421875 48-21.7353516v37.7353516h-96zm-8 53.7353516c8.8222656 0 16 7.1777344 16 16 0 1.8476563-.3027344 3.5683594-.9003906 5.1142578-.0380859.0986328-.0742188.1972656-.1083984.296875-2.1660157 6.3339844-8.1904297 10.5888672-14.991211 10.5888672s-12.8251953-4.2548828-14.9912109-10.5888672c-.0341797-.0996094-.0703125-.1982422-.1083984-.296875-.5976563-1.5458984-.9003907-3.2666015-.9003907-5.1142578 0-8.8222656 7.1777344-16 16-16zm-40-8h8c4.4179688 0 8-3.5820313 8-8s-3.5820313-8-8-8h-8v-8h8c4.4179688 0 8-3.5820313 8-8s-3.5820313-8-8-8h-8v-8h8c4.4179688 0 8-3.5820313 8-8s-3.5820313-8-8-8h-4.6865234l16-16h12.6865234v73.0126953c-13.7861328 3.5615235-24 16.1040039-24 30.9873047h-8z"
		fill="#387f29"
	/>
	<path
		d="m173.6599121 37.6599121c-1.5698242 1.5600586-3.6098633 2.3400879-5.6599121 2.3400879s-4.0900879-.7800293-5.6599121-2.3400879l-8-8c-1.5600586-1.5598144-2.3400879-3.6098633-2.3400879-5.6599121h19.3200684l2.3398438 2.3398438c3.1201171 3.1301269 3.1201171 8.1901855-.0000001 11.3200683z"
		fill="#c99d66"
	/>
	<path
		d="m125.6599121 85.6599121c-1.5698242 1.5600586-3.6098633 2.3400879-5.6599121 2.3400879s-4.0900879-.7800293-5.6599121-2.3400879l-2.3400879-2.3398437v-19.3200684c2.0500488 0 4.1000977.7800293 5.6599121 2.3398438l8 8c3.1201172 3.1301269 3.1201172 8.1901855 0 11.3200683z"
		fill="#c99d66"
	/>
	<path
		d="m360 24c0 2.0500488-.7800293 4.1000977-2.3400879 5.6599121l-8 8c-1.5698242 1.5600586-3.6098633 2.3400879-5.6599121 2.3400879s-4.0900879-.7800293-5.6599121-2.3400879c-3.1201172-3.1298828-3.1201172-8.1899414 0-11.3200684l2.3398437-2.3398437z"
		fill="#c99d66"
	/>
	<path
		d="m400 64v19.3200684l-2.3400879 2.3398438c-1.5698242 1.5600585-3.6098633 2.3400878-5.6599121 2.3400878s-4.0900879-.7800293-5.6599121-2.3400879c-3.1201172-3.1298828-3.1201172-8.1899414 0-11.3200684l8-8c1.5598144-1.5598144 3.6098633-2.3398437 5.6599121-2.3398437z"
		fill="#c99d66"
	/>
	<path
		d="m173.6599121 453.6601563-2.3398437 2.3398437h-19.3200684c0-2.0498047.7800293-4.1000977 2.3400879-5.6601563l8-8c3.1298828-3.1201172 8.1899414-3.1201172 11.3198242 0 3.1201172 3.1298829 3.1201172 8.1899415 0 11.3203126z"
		fill="#c99d66"
	/>
	<path
		d="m125.6599121 405.6601563-8 8c-1.5698242 1.5595703-3.6098633 2.3398437-5.6599121 2.3398437v-19.3198242l2.3400879-2.340332c3.1298828-3.1201172 8.1899414-3.1201172 11.3198242 0 3.1201172 3.1298828 3.1201172 8.1899414 0 11.3203125z"
		fill="#c99d66"
	/>
	<path
		d="m483.3144531 288h20.6855469c4.4179688 0 8-3.5820313 8-8s-3.5820313-8-8-8h-20.6855469l-15.5986328-15.5986328c-3.2651367-3.2648926-6.8642578-6.0737305-10.7175293-8.4013672 3.8532715-2.3276367 7.4523926-5.1364746 10.7175293-8.4013672l15.5986328-15.5986328h20.6855469c4.4179688 0 8-3.5820313 8-8s-3.5820313-8-8-8h-20.6855469l-15.5986328-15.5986328c-10.5771484-10.5761719-24.6396484-16.4013672-39.5976562-16.4013672h-20.1181641v-108.8212891c10.2060547-11.4101563 16-26.4628906 16-41.8183594v-17.3603515c0-4.4179688-3.5820313-8-8-8h-17.359375c-15.3554688 0-30.4082031 5.7939453-41.8193359 16h-201.6425782c-11.4111328-10.2060547-26.4638671-16-41.8193359-16h-17.359375c-4.4179688 0-8 3.5820313-8 8v17.3603516c0 15.3554688 5.7939453 30.4082031 16 41.8183594v108.821289h-20.1181641c-14.9580078 0-29.0205078 5.8251953-39.5976563 16.4013672l-15.5986327 15.5986328h-20.6855469c-4.4179688 0-8 3.5820313-8 8s3.5820313 8 8 8h20.6855469l15.5986328 15.5986328c3.2651367 3.2648926 6.8642578 6.0737305 10.7175293 8.4013672-3.8532715 2.3276367-7.4523926 5.1364746-10.7175293 8.4013672l-15.5986328 15.5986328h-20.6855469c-4.4179688 0-8 3.5820313-8 8s3.5820313 8 8 8h20.6855469l15.5986328 15.5986328c3.2651367 3.2646485 6.8642578 6.0737305 10.7175293 8.4013672-3.8532715 2.3276367-7.4523926 5.1367188-10.7175293 8.4013672l-15.5986328 15.5986328h-20.6855469c-4.4179688 0-8 3.5820313-8 8s3.5820313 8 8 8h20.6855469l15.5986328 15.5986328c3.2666016 3.2661133 6.8674316 6.0761719 10.7226563 8.4042969-3.8632813 2.3325195-7.4714355 5.1474609-10.7441406 8.4199219l-15.5771485 15.5771484h-20.6855469c-4.4179688 0-8 3.5820313-8 8s3.5820313 8 8 8h20.6855469l15.5771484 15.5771484c3.2741699 3.2739258 6.8837891 6.0898438 10.7490234 8.4228516-3.8652344 2.3330078-7.4748535 5.1489258-10.7490234 8.4228516l-15.5771484 15.5771484h-20.6855469c-4.4179688 0-8 3.5820313-8 8s3.5820313 8 8 8h20.6855469l15.5771484 15.5771484c10.5908203 10.5898438 24.6748047 16.4228516 39.6572266 16.4228516h344.1601563c14.9824219 0 29.0664063-5.8330078 39.6572266-16.4228516l15.5771483-15.5771484h20.6855469c4.4179688 0 8-3.5820313 8-8s-3.5820313-8-8-8h-20.6855469l-15.5771484-15.5771484c-3.2741699-3.2739258-6.8837891-6.0898438-10.7490234-8.4228516 3.8652344-2.3330078 7.4748535-5.1489258 10.7490234-8.4228516l15.5771484-15.5771484h20.6855469c4.4179688 0 8-3.5820313 8-8s-3.5820313-8-8-8h-20.6855469l-15.5771484-15.5771484c-3.2727051-3.2724609-6.8808594-6.0874023-10.7441406-8.4199219 3.8552246-2.328125 7.4560547-5.1381836 10.7226563-8.4042969l15.5986327-15.5986328h20.6855469c4.4179688 0 8-3.5820313 8-8s-3.5820313-8-8-8h-20.6855469l-15.5986328-15.5986328c-3.2651367-3.2646484-6.8642578-6.0737305-10.7175293-8.4013672 3.8532715-2.3276367 7.4523926-5.1367188 10.7175293-8.4013672zm-55.196289-96c10.6845703 0 20.7285156 4.1601563 28.2832031 11.7158203l12.2851562 12.2841797-12.2851563 12.2841797c-7.5546874 7.5556641-17.5986327 11.7158203-28.283203 11.7158203h-20.1181641v-48zm-236.1181641-160h128v32h-128zm-88-16h9.359375c12.2822266 0 24.3046875 4.9775391 32.9833984 13.6572266l8 8c1.5625 1.5615234 3.609375 2.3427734 5.6572266 2.3427734s4.0947266-.78125 5.6572266-2.3427734c1.5620117-1.5625 2.3430176-3.6098633 2.3430176-5.6572266h7.9997558v40c0 4.4179688 3.5820313 8 8 8h144c4.4179688 0 8-3.5820313 8-8v-40h7.9997559c0 2.0473633.7810059 4.0947266 2.3430176 5.6572266 1.5624999 1.5615234 3.6093749 2.3427734 5.6572265 2.3427734s4.0947266-.78125 5.6572266-2.3427734l8-8c8.6787109-8.6796875 20.7011718-13.6572266 32.9833984-13.6572266h9.359375v9.3603516c0 12.2822266-4.9775391 24.3037109-13.6572266 32.9824219l-8 8c-3.1240234 3.125-3.1240234 8.1894531 0 11.3144531 1.5625 1.5615234 3.609375 2.3427734 5.6572266 2.3427734v320.0004883c-2.0473633 0-4.0947266.7807617-5.6572266 2.3422852-3.1240234 3.125-3.1240234 8.1894531 0 11.3144531l8 8c.0019531.0019531.0043945.0039063.0063477.0058594 5.6982422 5.6992188 9.7932129 12.7553711 11.8432617 20.4072266.0126953.0478516.0263672.0957031.0400391.1435547 1.1728515 4.0722655 1.7675781 8.2529296 1.7675781 12.4257811v9.3603516h-9.359375c-12.2822266 0-24.3046875-4.9775391-32.9833984-13.6572266l-8-8c-3.125-3.1230469-8.1894531-3.1230469-11.3144531 0-1.5620117 1.5625-2.3430176 3.6098633-2.3430176 5.6572266h-7.9997559v-40c0-4.4179688-3.5820313-8-8-8h-144c-4.4179688 0-8 3.5820313-8 8v40h-7.9997559c0-2.0473633-.7810059-4.0947266-2.3430176-5.6572266-3.125-3.1230469-8.1894531-3.1230469-11.3144531 0l-8 8c-8.6787109 8.6796875-20.7011718 13.6572266-32.9833984 13.6572266h-9.359375v-9.3603516c0-4.1728516.5947266-8.3535156 1.7675781-12.4257813.0136719-.0478516.0273438-.0957031.0400391-.1435547 2.0500488-7.6518555 6.1450195-14.7080078 11.8432617-20.4072266.0019531-.0019531.0043945-.0039063.0063477-.0058594l8-8c3.1240234-3.125 3.1240234-8.1894531 0-11.3144531-1.5625-1.5615234-3.6098633-2.3422852-5.6572266-2.3422852v-320.0004881c2.0478516 0 4.0947266-.78125 5.6572266-2.3427734 3.1240234-3.125 3.1240234-8.1894531 0-11.3144531l-8-8c-8.6796875-8.678711-13.6572266-20.7001954-13.6572266-32.9824219zm216 432h-128v-32h128zm-264.4013672-219.7158203-12.2851562-12.2841797 12.2851563-12.2841797c7.5546874-7.555664 17.5986327-11.7158203 28.283203-11.7158203h20.1181641v48h-20.1181641c-10.6845703 0-20.7285156-4.1601562-28.2832031-11.7158203zm0 64-12.2851562-12.2841797 12.2851563-12.2841797c7.5546874-7.555664 17.5986327-11.7158203 28.283203-11.7158203h20.1181641v48h-20.1181641c-10.6845703 0-20.7285156-4.1601562-28.2832031-11.7158203zm0 64-12.2851562-12.2841797 12.2851563-12.2841797c7.5546874-7.555664 17.5986327-11.7158203 28.283203-11.7158203h20.1181641v48h-20.0800781c-.0126953 0-.0253906.0009766-.0380859.0009766v-.0009766c-10.6845704 0-20.7285157-4.1601562-28.2832032-11.7158203zm-.0214844 63.9785156-12.2636718-12.2626953 12.2636719-12.2626953c7.5683593-7.5693359 17.633789-11.7373047 28.3427734-11.7373047h20.0800781v28.8173828c-5.0664062 5.6513672-9.0227051 12.1689453-11.7028809 19.1826172h-8.3771973c-10.7089843 0-20.774414-4.1679687-28.3427734-11.7373047zm400.8457032 39.4746094 12.2636718 12.2626953-12.2636719 12.2626953c-7.5683593 7.569336-17.633789 11.7373047-28.3427734 11.7373047h-344.1601562c-10.7089844 0-20.7744141-4.1679688-28.3427734-11.7373047l-12.2636719-12.2626953 12.2636719-12.2626953c7.5683593-7.5693359 17.633789-11.7373047 28.3427734-11.7373047h4.4521484c-.2446289 2.2070313-.3720703 4.4233398-.3720703 6.6396484v17.3603516c0 4.4179688 3.5820313 8 8 8h17.359375c15.3554688 0 30.4082031-5.7939453 41.8193359-16h201.6425781c11.4111328 10.2060547 26.4638672 16 41.8193359 16h17.3593751c4.4179688 0 8-3.5820313 8-8v-17.3603516c0-2.2163086-.1274414-4.4326172-.3720703-6.6396484h4.4521484c10.7089844 0 20.7744141 4.1679688 28.3427735 11.7373047zm12.2636718-51.7373047-12.2636719 12.2626953c-7.5683593 7.569336-17.633789 11.7373047-28.3427734 11.7373047h-8.3771973c-2.6801758-7.0136719-6.6364746-13.53125-11.7028809-19.1826172v-28.8173828h20.0800781c10.7089844 0 20.7744141 4.1679688 28.3427734 11.7373047zm-12.2851562-76.2841797 12.2851562 12.2841797-12.2851563 12.2841797c-7.5546874 7.5556641-17.5986327 11.7158203-28.283203 11.7158203v.0009766c-.0126953 0-.0253906-.0009766-.0380859-.0009766h-20.0800782v-48h20.1181641c10.6845703 0 20.7285156 4.1601563 28.2832031 11.7158203zm-48.4013672-27.7158203v-48h20.1181641c10.6845703 0 20.7285156 4.1601563 28.2832031 11.7158203l12.2851562 12.2841797-12.2851563 12.2841797c-7.5546874 7.5556641-17.5986327 11.7158203-28.283203 11.7158203z"
	/>
	<path d="m184 112h144c4.4179688 0 8-3.5820313 8-8s-3.5820313-8-8-8h-144c-4.4179688 0-8 3.5820313-8 8s3.5820313 8 8 8z" />
	<path d="m184 144h144c4.4179688 0 8-3.5820313 8-8s-3.5820313-8-8-8h-144c-4.4179688 0-8 3.5820313-8 8s3.5820313 8 8 8z" />
	<path
		d="m144 352h20.3354492c5.5690918 9.753418 16.0522461 16 27.6645508 16s22.095459-6.246582 27.6645508-16h72.6708984c5.5690918 9.753418 16.0522461 16 27.6645508 16 17.6445313 0 32-14.3554688 32-32 0-7.9018555-2.8820801-15.4155273-8-21.1484375v-23.5371094l16 16v12.6855469c0 4.4179688 3.5820313 8 8 8s8-3.5820313 8-8v-15.9951172c0-.0029297 0-.0068359 0-.0097656v-63.9899902c0-.003418 0-.0068359 0-.0102539v-15.9948731c0-4.4179688-3.5820313-8-8-8s-8 3.5820313-8 8v12.6855469l-16 16v-28.6855469c0-4.4179688-3.5820313-8-8-8h-24.5178223c-3.8676758-30.8583984-29.7766113-54.9418945-61.4265137-55.9477539-.6809081-.034668-1.3662109-.0522461-2.055664-.0522461s-1.3747559.0175781-2.0556641.0522461c-31.6499023 1.0058594-57.5588379 25.0893555-61.4265136 55.9477539h-16.5178223c-2.1220703 0-4.15625.8427734-5.6572266 2.3427734l-24 24c-1.5 1.5009766-2.3427734 3.5351563-2.3427734 5.6572266v96c0 4.4179688 3.5820313 8 8 8zm216-92.6860352v25.3720703l-12.6865234-12.6860351zm-48-27.3139648h16v39.9951172.0097656 33.0195313c-2.590332-.6704102-5.2744141-1.0244141-8-1.0244141h-8zm-2.7451172 92.1923828c.0380859-.0332031.0771484-.0673828.1152344-.1025391 2.9121094-2.6376953 6.6875-4.0898437 10.6298828-4.0898437s7.7177734 1.4521484 10.6298828 4.0898438c.0380859.0351563.0771484.0693359.1152344.1025391 3.3398437 2.9091796 5.2548828 7.2128905 5.2548828 11.8076171 0 8.8222656-7.1777344 16-16 16-6.8007813 0-12.8251953-4.2548828-14.9912109-10.5888672-.0341797-.0996094-.0703125-.1982422-.1083984-.296875-.5976563-1.5458984-.9003907-3.2666015-.9003907-5.1142578 0-4.5947266 1.9150391-8.8984375 5.2548828-11.8076172zm-21.2548828 11.8076172h-64c0-5.8266602-1.572998-11.2890625-4.3051758-16h72.5734863c-2.7644042 4.7807617-4.2683105 10.2900391-4.2683105 16zm-40-160c13.2333984 0 24 10.7666016 24 24s-10.7666016 24-24 24-24-10.7666016-24-24 10.7666016-24 24-24zm-39.902832 21.3549805c-.0576172.8752441-.097168 1.7553711-.097168 2.6450195 0 22.0556641 17.9443359 40 40 40s40-17.9443359 40-40c0-.8896484-.0395508-1.7697754-.097168-2.6450195 5.1103516 7.6281738 8.097168 16.793457 8.097168 26.6450195 0 26.4677734-21.5322266 48-48 48s-48-21.5322266-48-48c0-9.8515625 2.9868164-19.0168457 8.097168-26.6450195zm-8.097168 68.9096679c11.7365723 13.3134766 28.8984375 21.7353516 48 21.7353516s36.2634277-8.421875 48-21.7353516v37.7353516h-96zm-8 53.7353516c8.8222656 0 16 7.1777344 16 16 0 1.8476563-.3027344 3.5683594-.9003906 5.1142578-.0380859.0986328-.0742188.1972656-.1083984.296875-2.1660157 6.3339844-8.1904297 10.5888672-14.991211 10.5888672s-12.8251953-4.2548828-14.9912109-10.5888672c-.0341797-.0996094-.0703125-.1982422-.1083984-.296875-.5976563-1.5458984-.9003907-3.2666015-.9003907-5.1142578 0-8.8222656 7.1777344-16 16-16zm-40-8h8c4.4179688 0 8-3.5820313 8-8s-3.5820313-8-8-8h-8v-8h8c4.4179688 0 8-3.5820313 8-8s-3.5820313-8-8-8h-8v-8h8c4.4179688 0 8-3.5820313 8-8s-3.5820313-8-8-8h-4.6865234l16-16h12.6865234v73.0126953c-13.7861328 3.5615235-24 16.1040039-24 30.9873047h-8z"
	/>
</svg>
