<svg id="Lamp" enable-background="new 0 0 512.114 512.114" height="512" viewBox="0 0 512.114 512.114" width="512" xmlns="http://www.w3.org/2000/svg">
	<path d="m415.058 160c0 36.07-11.78 70.09-34.07 98.36-26.499 33.602-21.074 94.64-22.07 94.64 0 0-35.43 64-102.86 64s-102.66-64-102.66-64c-1.013-26.378 2.486-62.823-22.9-95.45-22.04-28.33-33.6-62.32-33.44-98.3.4-87.2 71.22-158.64 157.86-159.25 91.684 0 160.14 74.362 160.14 160z" fill="#fedb41"/>
	<path d="m415.058 160c0 36.07-11.78 70.09-34.07 98.36-26.499 33.602-21.074 94.64-22.07 94.64 0 0-35.43 64-102.86 64s-102.66-64-102.66-64c-1.013-26.378 2.486-62.823-22.9-95.45-22.04-28.33-33.6-62.32-33.44-98.3.4-87.2 71.22-158.64 157.86-159.25 91.684 0 160.14 74.362 160.14 160z" fill="#fedb41"/>
	<path d="m256.058 0v417c67.43 0 102.86-64 102.86-64 .932 0-4.315-61.182 22.07-94.64 22.29-28.27 34.07-62.29 34.07-98.36 0-88.248-71.472-159.995-159-160z" fill="#fc3"/>
	<path d="m298.664 181.394c-5.857-5.858-15.355-5.858-21.213 0l-21.394 21.394-21.394-21.394c-5.857-5.858-15.355-5.858-21.213 0s-5.858 15.355 0 21.213l27.606 27.607v137.786c0 8.284 6.716 15 15 15s15-6.716 15-15v-137.787l27.606-27.606c5.86-5.858 5.86-15.356.002-21.213z" fill="#fea832"/>
	<path d="m271.058 368v-137.787l27.606-27.606c5.858-5.858 5.858-15.355 0-21.213-5.857-5.858-15.355-5.858-21.213 0l-21.394 21.394v180.212c8.285 0 15.001-6.716 15.001-15z" fill="#fe9923"/>
	<path d="m358.922 353h-205.52c.946 25.221 4.513 62.407 9.233 92.554 4.03 31.317 30.583 65.141 93.11 66.443.194.005.427.005.625 0 26.236-.546 47.885-6.846 64.349-18.726 16.331-11.792 26.272-28.29 28.762-47.718 4.033-25.621 8.644-64.806 9.441-92.553z" fill="#edf5ff"/>
	<path d="m256.37 511.997c26.236-.546 47.885-6.846 64.349-18.726 16.331-11.792 26.272-28.29 28.762-47.718 4.065-25.823 8.641-64.706 9.441-92.553h-102.864c0 166.7-.174 159.008.312 158.997z" fill="#d5e8fe"/>
	<path d="m158.756 417c1.105 9.169 2.503 19.758 3.879 28.553 4.03 31.317 30.583 65.141 93.11 66.444.194.005.427.005.625 0 26.236-.546 47.885-6.846 64.349-18.726 16.332-11.793 26.273-28.29 28.762-47.72.958-6.103 2.519-17.016 3.963-28.551z" fill="#d5e8fe"/>
	<path d="m256.37 511.997c26.236-.546 47.885-6.846 64.349-18.726 16.332-11.793 26.273-28.29 28.762-47.72.96-6.111 2.519-17.014 3.963-28.551h-97.386c0 102.295-.155 95.008.312 94.997z" fill="#b5dbff"/>
</svg>
