<svg version="1.1" id="PaintSpray" xmlns="http://www.w3.org/2000/svg" xmlns:xlink="http://www.w3.org/1999/xlink" x="0px" y="0px" viewBox="0 0 512 512" style="enable-background:new 0 0 512 512;" xml:space="preserve">
	<path style="fill:#FFDA6B;" d="M381,512H131V193h250V512z"/>
	<rect x="256" y="193" style="fill:#FFCA2C;" width="125" height="319"/>
	<rect x="241" y="85" style="fill:#606060;" width="30" height="63"/>
	<rect x="256" y="85" style="fill:#404040;" width="15" height="63"/>
	<path style="fill:#E8E8E8;" d="M381,223H131v-25c0-35.841,29.159-65,65-65h120c35.841,0,65,29.159,65,65V223z"/>
	<path style="fill:#BFBFBF;" d="M381,198c0-35.841-29.159-65-65-65h-60v90h125V198z"/>
	<path style="fill:#FF6A00;" d="M311,100H201V0h55c30.327,0,55,24.673,55,55V100z"/>
	<rect x="112" y="193" style="fill:#FFCA2C;" width="288" height="30"/>
	<rect x="112" y="482" style="fill:#FFCA2C;" width="288" height="30"/>
	<path style="fill:#FF6A00;" d="M256,428H131V277h125V428z"/>
	<path style="fill:#FF3D0C;" d="M311,55c0-30.327-24.673-55-55-55v100h55V55z"/>
	<rect x="256" y="193" style="fill:#FFAA19;" width="144" height="30"/>
	<rect x="256" y="482" style="fill:#FFAA19;" width="144" height="30"/>
</svg>
