<svg id="Pipe" height="512" viewBox="0 0 512 512" width="512" xmlns="http://www.w3.org/2000/svg" data-name="Layer 1">
	<path d="m455.46 42.33v37.41a9.993 9.993 0 0 1 -8.47 9.88 9.669 9.669 0 0 1 -1.53.12h-35.46v-57.41h35.46a10 10 0 0 1 10 10z" fill="#abf4f2" />
	<path d="m446.99 89.62a9.669 9.669 0 0 1 -1.53.12h-140.64a9.452 9.452 0 0 1 -1.52-.12l-.02.12v33.83h143.73v-33.83z" fill="#c6e02d" />
	<path d="m429.8 125.17v180.7c0 95.84-77.96 173.8-173.8 173.8s-173.8-77.96-173.8-173.8v-72.3h111v72.3a62.8 62.8 0 0 0 125.6 0v-182.3h111z" fill="#abf4f2" />
	<path d="m340.29 32.33h69.71v57.41h-69.71z" fill="#72bcc1" />
	<path d="m340.29 32.33v57.41h-35.47a9.452 9.452 0 0 1 -1.52-.12 10 10 0 0 1 -8.48-9.88v-37.41a10 10 0 0 1 10-10z" fill="#abf4f2" />
	<path d="m217.18 152.33v37.41a10 10 0 0 1 -8.48 9.88 9.452 9.452 0 0 1 -1.52.12h-35.47v-57.41h35.47a10 10 0 0 1 10 10z" fill="#abf4f2" />
	<path d="m208.7 199.62a9.452 9.452 0 0 1 -1.52.12h-140.64a9.669 9.669 0 0 1 -1.53-.12l-.02.12v33.83h143.73v-33.83z" fill="#c6e02d" />
	<path d="m102 142.33h69.71v57.41h-69.71z" fill="#72bcc1" />
	<path d="m102 142.33v57.41h-35.46a9.669 9.669 0 0 1 -1.53-.12 9.993 9.993 0 0 1 -8.47-9.88v-37.41a10 10 0 0 1 10-10z" fill="#abf4f2" />
	<path d="m112.2 305.87v-72.3h-30v72.3c0 95.84 77.97 173.8 173.8 173.8 5.054 0 10.055-.23 15-.654-88.833-7.631-158.8-82.36-158.8-173.146z" fill="#88d1d3" />
	<path d="m286 368.67a62.869 62.869 0 0 0 62.8-62.8v-182.3h-30v182.3a62.9 62.9 0 0 1 -47.8 60.976 62.667 62.667 0 0 0 15 1.824z" fill="#88d1d3" />
	<path d="m76.54 172.33a10 10 0 0 1 10-10h15.46v-20h-35.46a10 10 0 0 0 -10 10v37.41a9.993 9.993 0 0 0 8.47 9.88 9.669 9.669 0 0 0 1.53.12h10z" fill="#93dbd8" />
	<path d="m207.18 142.33h-35.47v20h35.47a10 10 0 0 1 10 10v-20a10 10 0 0 0 -10-10z" fill="#93dbd8" />
	<path d="m102 142.33h69.71v20h-69.71z" fill="#63abad" />
	<path d="m314.82 62.33a10 10 0 0 1 10-10h15.47v-20h-35.47a10 10 0 0 0 -10 10v37.41a10 10 0 0 0 8.48 9.88 9.452 9.452 0 0 0 1.52.12h10z" fill="#93dbd8" />
	<path d="m445.46 32.33h-35.46v20h35.46a10 10 0 0 1 10 10v17.411-37.411a10 10 0 0 0 -10-10z" fill="#93dbd8" />
	<path d="m340.29 32.33h69.71v20h-69.71z" fill="#63abad" />
	<g fill="#284268">
		<path d="m399.8 256.805a6 6 0 0 0 6-6v-4.076a6 6 0 0 0 -12 0v4.076a6 6 0 0 0 6 6z" />
		<path d="m399.8 224.828a6 6 0 0 0 6-6v-47.8a6 6 0 0 0 -12 0v47.8a6 6 0 0 0 6 6z" />
		<path d="m134.481 375.952a6 6 0 1 0 -10.113 6.459c1.564 2.449 3.21 4.893 4.893 7.265a6 6 0 0 0 9.787-6.945c-1.57-2.212-3.107-4.494-4.567-6.779z" />
		<path d="m177.4 421.573a169.8 169.8 0 0 1 -24.46-21.741 6 6 0 1 0 -8.8 8.157 181.551 181.551 0 0 0 26.194 23.282 6 6 0 1 0 7.066-9.7z" />
		<path
			d="m445.462 26.326h-140.639a16.018 16.018 0 0 0 -16 16v37.411a16.013 16.013 0 0 0 8.454 14.1v29.73a6 6 0 0 0 6 6h9.523v176.3a56.8 56.8 0 0 1 -113.6 0v-66.3h9.525a6 6 0 0 0 6-6v-29.73a16.013 16.013 0 0 0 8.454-14.1v-37.411a16.018 16.018 0 0 0 -16-16h-140.641a16.018 16.018 0 0 0 -16 16v37.411a16.013 16.013 0 0 0 8.454 14.1v29.73a6 6 0 0 0 6 6h11.208v66.3c0 99.143 80.659 179.8 179.8 179.8s179.8-80.659 179.8-179.8v-176.3h11.2a6 6 0 0 0 6-6v-29.728a16.013 16.013 0 0 0 8.454-14.1v-37.413a16.018 16.018 0 0 0 -15.992-16zm-99.177 12h57.715v45.411h-57.715zm-45.462 41.411v-37.411a4 4 0 0 1 4-4h29.462v45.411h-29.462a4 4 0 0 1 -4-4zm-123.108 68.589h29.462a4 4 0 0 1 4 4v37.411a4 4 0 0 1 -4 4h-29.462zm-69.715 0h57.715v45.411h-57.715zm-45.462 41.411v-37.411a4 4 0 0 1 4-4h29.462v45.411h-29.462a4 4 0 0 1 -4-4zm8.454 37.832v-21.832h131.731v21.832zm352.811 78.3c0 92.526-75.276 167.8-167.8 167.8s-167.803-75.269-167.803-167.797v-66.3h99v66.3a68.8 68.8 0 0 0 137.6 0v-176.3h99zm17.2-188.3h-131.726v-21.832h131.731zm8.454-37.832a4 4 0 0 1 -4 4h-29.457v-45.411h29.462a4 4 0 0 1 4 4z"
		/>
	</g>
</svg>
