<svg version="1.1" id="Pliers" xmlns="http://www.w3.org/2000/svg" xmlns:xlink="http://www.w3.org/1999/xlink" x="0px" y="0px" viewBox="0 0 475.78 475.78" style="enable-background:new 0 0 475.78 475.78;" xml:space="preserve">
	<path style="fill:#A3A2A9;" d="M124.977,147.592l-18.64-18.56l-11.28,11.28l-33.92-33.92l11.28-11.36l-56.56-56.56l-3.2,3.2 c-4.825,4.866-6.016,12.266-2.96,18.4l62.72,125.52l50.08,10C116.087,180.029,116.997,162.412,124.977,147.592z"/>
	<ellipse style="fill:#E7E7E8;" cx="174.257" cy="174.272" rx="15.944" ry="16"/>
	<path style="fill:#D3D2D6;" d="M190.897,227.672c8.674-2.657,16.56-7.41,22.96-13.84c15.988-15.864,20.85-39.795,12.32-60.64v-0.08 c-2.828-6.923-7.018-13.207-12.32-18.48c-5.206-5.232-11.408-9.367-18.24-12.16l-10.08-50L60.089,9.712 c-6.161-3.081-13.602-1.872-18.472,3l-3.12,3.12l56.56,56.64l11.28-11.36l34,33.92l-11.36,11.36l18.64,18.56 c-4.741,2.622-9.101,5.878-12.96,9.68c-3.826,3.838-7.085,8.202-9.68,12.96c-7.98,14.819-8.89,32.437-2.48,48 C133.564,222.371,163.231,236.285,190.897,227.672L190.897,227.672z M162.977,162.952c6.252-6.245,16.383-6.239,22.627,0.013 c6.245,6.252,6.239,16.382-0.013,22.627c-6.247,6.24-16.368,6.24-22.615,0c-6.252-6.195-6.298-16.285-0.103-22.537 C162.908,163.021,162.942,162.987,162.977,162.952z"/>
	<path style="fill:#A3A2A9;" d="M227.777,190.952l44.96,26l16-27.68l-62.56-36.08C231.054,165.217,231.619,178.558,227.777,190.952 L227.777,190.952z"/>
	<path style="fill:#AB2300;" d="M432.721,271.664c-25.845-26.709-55.286-49.687-87.472-68.272l-34.624-20 c-7.652-4.418-17.438-1.796-21.856,5.856l-16,27.712c-4.418,7.652-1.796,17.438,5.856,21.856l34.624,20 c32.186,18.585,61.627,41.563,87.472,68.272l12.536,12.96c12.288,12.702,32.546,13.039,45.249,0.751 c2.138-2.068,3.976-4.423,5.463-6.999c6.384-11.061,4.664-25.013-4.216-34.192L432.721,271.664z"/>
	<path style="fill:#A3A2A9;" d="M190.897,227.672c-12.383,3.922-25.753,3.356-37.76-1.6l36.136,62.688l27.688-16L190.897,227.672z"/>
	<path style="fill:#AB2300;" d="M327.089,400.72c-26.709-25.845-49.687-55.286-68.272-87.472l-20-34.624 c-4.418-7.652-14.204-10.274-21.856-5.856l-27.68,16c-7.652,4.418-10.274,14.203-5.856,21.856l20,34.624 c18.585,32.186,41.563,61.627,68.272,87.472l27.944,27.032c9.179,8.88,23.131,10.6,34.192,4.216 c15.305-8.837,20.548-28.408,11.711-43.713c-1.487-2.575-3.326-4.931-5.463-6.999L327.089,400.72z"/>
	<path style="fill:#FFAF46;" d="M216.977,272.792l-0.016-0.024l-27.688,15.992l0.024,0.032L216.977,272.792z"/>
	<path style="fill:#231F20;" d="M196.409,183.464c0.354-0.957,0.648-1.935,0.88-2.928c0.144-0.52,0.36-1.016,0.464-1.544 c0.312-1.554,0.467-3.135,0.464-4.72c0-1.585-0.156-3.166-0.464-4.72c-1.577-7.829-6.932-14.367-14.296-17.456 c-2.922-1.209-6.054-1.829-9.216-1.824c-6.363-0.034-12.471,2.498-16.944,7.024c-4.504,4.503-7.028,10.615-7.016,16.984v0.328 c0.145,13.115,10.82,23.669,23.936,23.664c6.356,0.031,12.457-2.498,16.928-7.016c1.123-1.13,2.136-2.365,3.024-3.688 c0.12-0.176,0.184-0.384,0.304-0.568C195.216,185.878,195.863,184.695,196.409,183.464z M174.257,182.272 c-2.105,0.008-4.125-0.834-5.6-2.336c-3.137-3.111-3.158-8.177-0.046-11.314c0.015-0.016,0.031-0.031,0.046-0.046 c1.479-1.492,3.5-2.32,5.6-2.296c2.104-0.01,4.123,0.829,5.6,2.328c3.139,3.109,3.164,8.174,0.054,11.314 c-0.018,0.018-0.036,0.036-0.054,0.054C178.377,181.466,176.357,182.295,174.257,182.272z"/>
	<path style="fill:#231F20;" d="M465.505,294.04l-27.04-27.944c-26.361-27.243-56.388-50.682-89.216-69.64l-34.592-19.984 c-8.79-5.138-19.879-4.092-27.552,2.6l-54.712-31.56c-6.094-13.328-16.596-24.149-29.736-30.64l-9.28-45.976 c-0.48-2.425-2.054-4.492-4.264-5.6L63.681,2.568c-9.235-4.651-20.413-2.844-27.712,4.48l-3.128,3.128 c-3.123,3.124-3.123,8.188,0,11.312l56.56,56.64c1.502,1.502,3.54,2.346,5.664,2.344c2.134-0.007,4.175-0.872,5.664-2.4l5.6-5.664 l22.728,22.632l-5.696,5.696c-3.128,3.12-3.135,8.186-0.014,11.314c0.005,0.005,0.01,0.01,0.014,0.014l11.688,11.64 c-2.127,1.662-4.159,3.44-6.088,5.328c-1.843,1.917-3.576,3.936-5.192,6.048l-11.768-11.72c-3.122-3.112-8.174-3.112-11.296,0 l-5.6,5.6l-22.624-22.632l5.664-5.688c3.118-3.123,3.118-8.181,0-11.304l-56.56-56.56c-1.524-1.504-3.587-2.333-5.728-2.304 c-2.125,0.069-4.149,0.924-5.68,2.4l-3.2,3.2c-7.259,7.305-9.049,18.427-4.448,27.64l62.736,125.456 c1.108,2.21,3.175,3.784,5.6,4.264l46.128,9.216c6.402,13.119,17.186,23.589,30.488,29.6l31.608,54.824 c-6.691,7.671-7.737,18.757-2.6,27.544l20,34.624c18.948,32.829,42.375,62.859,69.608,89.224l27.944,27.04 c11.768,11.322,29.596,13.518,43.76,5.392c19.131-11.046,25.685-35.51,14.639-54.642c-1.857-3.217-4.154-6.159-6.823-8.742 l-12.96-12.536c-26.181-25.324-48.702-54.175-66.912-85.72l-20-34.624c-5.038-8.837-15.153-13.473-25.136-11.52l-18.208-31.504 c6.331-3.062,12.113-7.149,17.112-12.096c4.941-4.993,9.037-10.756,12.128-17.064l31.464,18.192 c-1.936,9.982,2.712,20.087,11.552,25.112l34.624,20c31.545,18.21,60.396,40.731,85.72,66.912l12.544,12.96 c7.481,7.799,17.825,12.204,28.632,12.192c1.672-0.001,3.341-0.105,5-0.312c12.477-1.482,23.514-8.789,29.752-19.696 C479.032,323.631,476.823,305.811,465.505,294.04L465.505,294.04z M77.857,178.512L16.865,56.536 c-0.957-1.915-1.107-4.134-0.416-6.16l44.672,44.672l-5.664,5.704c-3.112,3.122-3.112,8.174,0,11.296l33.92,33.92 c3.124,3.123,8.188,3.123,11.312,0l5.64-5.6l8.96,8.928c-0.064,0.152-0.096,0.312-0.16,0.464c-1.069,2.568-1.969,5.203-2.696,7.888 c-0.16,0.6-0.248,1.2-0.392,1.8c-0.516,2.11-0.916,4.246-1.2,6.4c-0.12,0.88-0.208,1.768-0.288,2.656 c-0.184,1.984-0.264,4-0.256,5.976v2.4c0.104,2.754,0.385,5.498,0.84,8.216v0.096L77.857,178.512z M170.281,238.064 c1.328,0.088,2.656,0.2,4,0.2c0.624,0,1.248-0.128,1.88-0.144c1.688-0.056,3.36-0.2,5.04-0.384c1.424-0.16,2.832-0.32,4.24-0.576 c0.536-0.096,1.08-0.104,1.6-0.216l19.016,32.904l-13.824,8l-22.92-39.768c0.296,0.008,0.616-0.032,0.936-0.016L170.281,238.064z M227.081,278.864c2.053,0.541,3.803,1.884,4.856,3.728l20,34.624c18.956,32.83,42.395,62.857,69.64,89.216l12.96,12.544 c9.523,9.22,9.769,24.414,0.549,33.937c-1.548,1.599-3.31,2.974-5.237,4.087c-7.97,4.581-18.007,3.349-24.632-3.024l-27.944-27.04 c-26.176-25.326-48.694-54.177-66.904-85.72l-20-34.632c-2.203-3.777-0.937-8.624,2.832-10.84l0.128-0.056l27.68-16 c1.196-0.7,2.558-1.068,3.944-1.064c0.705-0.002,1.407,0.09,2.088,0.272L227.081,278.864z M208.241,208.144 c-5.505,5.514-12.283,9.589-19.736,11.864c-2.627,0.836-5.323,1.438-8.056,1.8c-21.551,2.832-42.311-9.183-50.592-29.28 c-0.69-1.655-1.283-3.348-1.776-5.072c-3.472-12.08-2.068-25.04,3.912-36.096c2.224-4.051,5.006-7.77,8.264-11.048 c3.343-3.284,7.109-6.106,11.2-8.392c3.867-2.136,5.271-7.003,3.134-10.871c-0.365-0.662-0.823-1.268-1.358-1.801l-12.952-12.904 l5.688-5.688c3.126-3.122,3.129-8.188,0.006-11.314c-0.002-0.002-0.004-0.004-0.006-0.006l-34-33.92 c-1.503-1.475-3.525-2.303-5.632-2.304c-2.138,0.009-4.183,0.873-5.68,2.4l-5.6,5.656L50.401,16.432 c2.015-0.67,4.214-0.512,6.112,0.44l121.952,61.04l9.304,46.168c0.524,2.624,2.325,4.813,4.8,5.832 c11.687,4.84,21.008,14.072,25.96,25.712c0.064,0.2,0.144,0.416,0.224,0.616c4.177,10.302,4.663,21.732,1.376,32.352 c-2.369,7.38-6.458,14.092-11.928,19.584L208.241,208.144z M237.153,186.312c0.469-2.451,0.795-4.927,0.976-7.416 c0-0.344,0.072-0.688,0.088-1.032c0.135-2.591,0.113-5.188-0.064-7.776c0-0.272,0-0.544,0-0.8l39.696,22.896l-8,13.816 l-32.8-18.968c0.008-0.216,0.008-0.456,0.064-0.688L237.153,186.312z M457.057,329.8c-6.634,11.475-21.314,15.401-32.789,8.767 c-1.923-1.111-3.682-2.484-5.227-4.079l-12.552-12.96c-26.359-27.245-56.386-50.684-89.216-69.64l-34.624-20 c-3.821-2.209-5.132-7.096-2.928-10.92l16-27.72c1.053-1.844,2.803-3.187,4.856-3.728c0.681-0.181,1.383-0.273,2.088-0.272 c1.405,0.002,2.785,0.375,4,1.08l34.624,20c31.543,18.21,60.394,40.728,85.72,66.904l27.04,27.944 C460.407,311.806,461.633,321.835,457.057,329.8z"/>
</svg>
