<svg id="Roof" height="512" viewBox="0 0 128 128" width="512" xmlns="http://www.w3.org/2000/svg" data-name="Layer 1">
	<path d="m64 61.07c-9.389 0-17 2.458-17 5.49v42.264c0-3.032 7.611-5.49 17-5.49s17 2.458 17 5.49v-42.264c0-3.032-7.611-5.49-17-5.49z" fill="#ff2836"/>
	<path d="m98 61.07c-9.389 0-17 2.458-17 5.49v42.264c0-3.032 7.611-5.49 17-5.49s17 2.458 17 5.49v-42.264c0-3.032-7.611-5.49-17-5.49z" fill="#979700"/>
	<path d="m64 19.176c-9.389 0-17 2.458-17 5.49v42.264c0-3.032 7.611-5.49 17-5.49s17 2.46 17 5.49v-42.264c0-3.032-7.611-5.49-17-5.49z" fill="#979700"/>
	<path d="m98 19.176c-9.389 0-17 2.458-17 5.49v42.264c0-3.032 7.611-5.49 17-5.49s17 2.458 17 5.49v-42.264c0-3.032-7.611-5.49-17-5.49z" fill="#ff2836"/>
	<path d="m30 61.07c-9.389 0-17 2.458-17 5.49v42.264c0-3.032 7.611-5.49 17-5.49s17 2.458 17 5.49v-42.264c0-3.032-7.611-5.49-17-5.49z" fill="#979700"/>
	<path d="m30 19.176c-9.389 0-17 2.458-17 5.49v42.264c0-3.032 7.611-5.49 17-5.49s17 2.46 17 5.49v-42.264c0-3.032-7.611-5.49-17-5.49z" fill="#ff2836"/>
	<path d="m25.5 19.377c-7.2.638-12.5 2.761-12.5 5.289v41.894c1-2.778 6.587-4.4 12.5-4.919 1.435-.127 2.94-.2 4.5-.2a47.573 47.573 0 0 1 8 .646v-37.421c0-2.528-5.3-4.651-12.5-5.289z" fill="#ff656b"/>
	<path d="m59.5 19.377c-7.2.638-12.5 2.761-12.5 5.289v41.894c1-2.778 6.587-4.4 12.5-4.919 1.435-.127 2.94-.2 4.5-.2a47.573 47.573 0 0 1 8 .646v-37.421c0-2.528-5.3-4.651-12.5-5.289z" fill="#d1d100"/>
	<path d="m93.5 19.377c-7.2.638-12.5 2.761-12.5 5.289v41.894c1-2.778 6.587-4.4 12.5-4.919 1.435-.127 2.94-.2 4.5-.2a47.573 47.573 0 0 1 8 .646v-37.421c0-2.528-5.3-4.651-12.5-5.289z" fill="#ff656b"/>
	<path d="m25.5 61.356c-7.2.638-12.5 2.761-12.5 5.289v41.894c1-2.778 6.587-4.4 12.5-4.919 1.435-.127 2.94-.2 4.5-.2a47.573 47.573 0 0 1 8 .646v-37.422c0-2.527-5.3-4.651-12.5-5.288z" fill="#d1d100"/>
	<path d="m59.5 61.356c-7.2.638-12.5 2.761-12.5 5.289v41.894c1-2.778 6.587-4.4 12.5-4.919 1.435-.127 2.94-.2 4.5-.2a47.573 47.573 0 0 1 8 .646v-37.422c0-2.527-5.3-4.651-12.5-5.288z" fill="#ff656b"/>
	<path d="m93.5 61.356c-7.2.638-12.5 2.761-12.5 5.289v41.894c1-2.778 6.587-4.4 12.5-4.919 1.435-.127 2.94-.2 4.5-.2a47.573 47.573 0 0 1 8 .646v-37.422c0-2.527-5.3-4.651-12.5-5.288z" fill="#d1d100"/>
	<g fill="#f1f3fa">
		<path d="m21 24.994a1.75 1.75 0 0 0 -1.75 1.75v19.5a1.75 1.75 0 1 0 3.5 0v-19.5a1.75 1.75 0 0 0 -1.75-1.75z"/>
		<path d="m21 50.161a1.75 1.75 0 0 0 -1.75 1.75v2.167a1.75 1.75 0 0 0 3.5 0v-2.167a1.75 1.75 0 0 0 -1.75-1.75z"/>
		<path d="m55 68.578a1.75 1.75 0 0 0 -1.75 1.75v24.25a1.75 1.75 0 0 0 3.5 0v-24.25a1.75 1.75 0 0 0 -1.75-1.75z"/>
	</g>
	<path d="m95.2 101.656-.484.027a1.75 1.75 0 0 0 .1 3.5h.105l.461-.026a1.75 1.75 0 1 0 -.184-3.5z" fill="#8b3120"/>
	<path d="m98 17.426a45.744 45.744 0 0 0 -10.723 1.174 1.75 1.75 0 1 0 .838 3.4 42.214 42.214 0 0 1 9.885-1.074c10.5 0 15.25 2.869 15.25 3.74v37.814c-3.637-1.9-9.579-2.79-15.25-2.79s-11.613.894-15.25 2.79v-37.814c0-4.974-9.72-7.24-18.75-7.24-6.711 0-13.8 1.253-17 3.937-3.2-2.685-10.289-3.937-17-3.937-9.03 0-18.75 2.266-18.75 7.24v84.158a1.75 1.75 0 0 0 3.5 0c0-.871 4.754-3.74 15.25-3.74s15.25 2.869 15.25 3.74a1.75 1.75 0 1 0 3.5 0c0-.871 4.754-3.74 15.25-3.74s15.25 2.869 15.25 3.74a1.75 1.75 0 1 0 3.5 0c0-.221.933-1.576 5.366-2.668a1.75 1.75 0 0 0 -.838-3.4 20.425 20.425 0 0 0 -4.528 1.616v-37.442c0-.871 4.754-3.74 15.25-3.74s15.25 2.869 15.25 3.74v37.438c-2.957-1.536-7.377-2.376-11.628-2.664a1.75 1.75 0 1 0 -.236 3.492c8.216.556 11.864 2.849 11.864 3.627a1.75 1.75 0 1 0 3.5 0v-84.157c0-4.974-9.72-7.24-18.75-7.24zm-68 3.5c10.5 0 15.25 2.869 15.25 3.74v37.445c-3.637-1.9-9.579-2.791-15.25-2.791s-11.613.894-15.25 2.791v-37.445c0-.871 4.75-3.74 15.25-3.74zm0 80.658c-5.671 0-11.613.894-15.25 2.79v-37.814c0-.871 4.754-3.74 15.25-3.74s15.25 2.869 15.25 3.74v37.816c-3.637-1.898-9.579-2.792-15.25-2.792zm34 0c-5.671 0-11.613.894-15.25 2.79v-37.814c0-.871 4.754-3.74 15.25-3.74a45.406 45.406 0 0 1 8.213.711 1.75 1.75 0 1 0 .646-3.439 48.9 48.9 0 0 0 -8.859-.772c-5.671 0-11.613.894-15.25 2.791v-37.445c0-.871 4.754-3.74 15.25-3.74s15.25 2.869 15.25 3.74v79.708c-3.637-1.896-9.579-2.79-15.25-2.79z" fill="#8b3120"/>
</svg>
