<svg id="Sand" enable-background="new 0 0 512 512" height="512" viewBox="0 0 512 512" width="512" xmlns="http://www.w3.org/2000/svg">
	<path d="m66.952 169.259 32.047 296.858c2.204 20.412 19.435 35.883 39.965 35.883h181.467c20.53 0 37.761-15.471 39.965-35.883l32.047-296.858z" fill="#e2e9ee"/>
	<path d="m57.698 113.259h344v56h-344z" fill="#ff7b79"/>
	<path d="m385.639 113.259c-29.172-61.333-88.051-103.259-155.941-103.259s-126.769 41.926-155.941 103.259z" fill="#ffcd69"/>
	<path d="m263.698 311.259h-68c-12.15 0-22 9.85-22 22 0 12.15 9.85 22 22 22h68c12.15 0 22-9.85 22-22 0-12.15-9.85-22-22-22z" fill="#ff7b79"/>
	<path d="m260.388 502 56.55-113.1c26.452-52.904 101.948-52.904 128.4 0l56.55 113.1z" fill="#ffcd69"/>
	<path d="m229.7 40c-2.64 0-5.21 1.069-7.07 2.93-1.86 1.86-2.93 4.44-2.93 7.07s1.07 5.21 2.93 7.069c1.86 1.86 4.44 2.931 7.07 2.931s5.21-1.07 7.07-2.931c1.86-1.859 2.93-4.439 2.93-7.069s-1.07-5.21-2.93-7.07c-1.86-1.861-4.44-2.93-7.07-2.93z"/>
	<path d="m185.52 57.63c-2.63 0-5.21 1.07-7.07 2.93s-2.93 4.44-2.93 7.08c0 2.63 1.07 5.21 2.93 7.061 1.86 1.869 4.44 2.939 7.07 2.939s5.21-1.07 7.07-2.939c1.86-1.851 2.93-4.431 2.93-7.061 0-2.64-1.07-5.22-2.93-7.08s-4.44-2.93-7.07-2.93z"/>
	<path d="m273.87 57.63c-2.63 0-5.21 1.07-7.07 2.93-1.86 1.87-2.93 4.44-2.93 7.08 0 2.63 1.07 5.2 2.93 7.061 1.86 1.869 4.44 2.939 7.07 2.939s5.211-1.07 7.07-2.939c1.87-1.86 2.93-4.431 2.93-7.061 0-2.64-1.059-5.21-2.93-7.08-1.86-1.86-4.44-2.93-7.07-2.93z"/>
	<path d="m510.833 497.528-56.55-113.1c-13.492-26.984-40.174-44.076-70.135-45.151l4.845-44.878c7.365-6.336 14.311-13.218 20.756-20.626 31.944-36.724 49.536-83.785 49.536-132.515 0-5.523-4.477-10-10-10h-37.586v-18c0-5.522-4.477-10-10-10h-9.856c-15.278-29.724-37.32-54.845-64.055-72.914-29.373-19.851-63.292-30.344-98.09-30.344s-68.716 10.493-98.089 30.345c-26.735 18.069-48.777 43.19-64.055 72.914h-9.856c-5.523 0-10 4.478-10 10v18l-37.586.001c-5.523 0-10 4.478-10 10 0 48.576 17.495 95.524 49.261 132.196 6.521 7.528 13.559 14.516 21.031 20.943l18.653 172.791c2.758 25.546 24.213 44.81 49.907 44.81h362.924c3.466 0 6.685-1.795 8.506-4.742 1.823-2.948 1.988-6.63.439-9.73zm-218.111-177.723c-5.092-10.94-16.183-18.546-29.024-18.546h-68c-12.842 0-23.934 7.607-29.025 18.549-28.863-5.715-55.177-18.354-77.295-35.986l-11.288-104.563h106.195c5.523 0 10-4.478 10-10 0-5.523-4.477-10-10-10h-116.587v-36h324v36h-117.412c-5.523 0-10 4.477-10 10 0 5.522 4.477 10 10 10h107.02l-11.293 104.611c-22.112 17.607-48.422 30.221-77.291 35.935zm-17.024 13.455c0 6.616-5.383 11.999-12 11.999h-68c-6.617 0-12-5.383-12-12s5.383-12 12-12h68c6.617 0 12 5.384 12 12.001zm163.308-182c-2.351 42.266-19.517 81.318-46.597 111.492l9.013-83.493h.276c5.523 0 10-4.478 10-10v-18zm-209.308-131.26c56.926 0 109.045 31.52 139.347 83.259h-278.694c30.302-51.739 82.421-83.259 139.347-83.259zm-209.307 131.259h27.307v18c0 5.522 4.477 10 10 10h.276l9.005 83.418c-27.067-30.185-44.232-69.226-46.588-111.418zm88.55 313.785-16.651-154.247c21.833 14.159 46.297 24.042 72.064 28.924 2.997 14.558 15.912 25.537 31.344 25.537h68c15.431 0 28.344-10.978 31.343-25.535 25.769-4.881 50.23-14.768 72.065-28.928l-3.265 30.246c-23.987 5.122-44.545 20.782-55.847 43.386l-53.786 107.573h-115.244c-15.457 0-28.364-11.589-30.023-26.956zm167.628 26.956 49.314-98.628c10.692-21.384 31.348-34.15 55.255-34.15 23.908 0 44.564 12.767 55.256 34.15l49.314 98.628z"/>
	<path d="m389.39 396c-2.64 0-5.21 1.069-7.07 2.93-1.86 1.86-2.93 4.44-2.93 7.07s1.07 5.21 2.93 7.069c1.86 1.86 4.43 2.931 7.07 2.931 2.63 0 5.21-1.07 7.07-2.931 1.86-1.859 2.93-4.439 2.93-7.069s-1.07-5.21-2.93-7.07c-1.86-1.861-4.44-2.93-7.07-2.93z"/>
	<path d="m418.89 438c-2.63 0-5.21 1.069-7.07 2.93-1.86 1.86-2.93 4.44-2.93 7.07s1.07 5.21 2.93 7.069c1.86 1.86 4.44 2.931 7.07 2.931s5.21-1.07 7.07-2.931c1.86-1.859 2.93-4.439 2.93-7.069s-1.07-5.21-2.93-7.07c-1.86-1.861-4.44-2.93-7.07-2.93z"/>
	<path d="m362.22 438c-2.63 0-5.21 1.069-7.07 2.93-1.86 1.86-2.93 4.44-2.93 7.07s1.07 5.21 2.93 7.069c1.87 1.86 4.44 2.931 7.07 2.931s5.21-1.07 7.07-2.931c1.86-1.859 2.93-4.439 2.93-7.069s-1.07-5.21-2.93-7.07c-1.86-1.861-4.44-2.93-7.07-2.93z"/>
	<path d="m229.28 158.85c-2.63 0-5.2 1.061-7.06 2.92-1.87 1.87-2.93 4.441-2.93 7.08 0 2.63 1.06 5.21 2.93 7.07 1.86 1.86 4.43 2.93 7.06 2.93 2.64 0 5.21-1.069 7.08-2.93 1.86-1.87 2.93-4.44 2.93-7.07s-1.07-5.21-2.93-7.08c-1.87-1.86-4.44-2.92-7.08-2.92z"/>
</svg>
