<svg version="1.1" id="Toilet" xmlns="http://www.w3.org/2000/svg" xmlns:xlink="http://www.w3.org/1999/xlink" x="0px" y="0px" viewBox="0 0 512 512" style="enable-background:new 0 0 512 512;" xml:space="preserve">
	<polyline style="fill:#CCD1D2;" points="196.184,405.464 183.505,459.999 299.994,459.999 287.837,407.624 "/>
	<polyline style="fill:#21D8DE;" points="347.879,201.143 380.099,201.143 380.099,59.088 241.749,59.088 "/>
	<polyline style="fill:#21D8DE;" points="241.749,59.088 103.4,59.088 103.4,201.143 135.62,201.143 "/>
	<path style="fill:#E7ECED;" d="M320.924,268.147c17.366-22.201,27.955-51.732,27.955-84.147c0-68.987-47.964-124.912-107.13-124.912 S134.619,115.013,134.619,184c0,32.415,10.59,61.946,27.955,84.147H320.924z"/>
	<path style="fill:#AFB6BB;" d="M345.529,318.734H137.97c-13.969,0-25.293-11.324-25.293-25.293l0,0 c0-13.969,11.324-25.293,25.293-25.293h207.559c13.969,0,25.293,11.324,25.293,25.293l0,0 C370.822,307.41,359.498,318.734,345.529,318.734z"/>
	<path style="fill:#E7ECED;" d="M150.162,318.734v3.391c0,51.821,42.009,93.83,93.83,93.83l0,0c51.821,0,93.83-42.009,93.83-93.83 v-3.391H150.162z"/>
	<rect x="80.78" y="10" style="fill:#11B9C1;" width="321.93" height="49.09"/>
	<path d="M307.63,177.58c-0.66,0-1.311-0.061-1.96-0.19c-0.64-0.13-1.27-0.32-1.87-0.57s-1.18-0.56-1.73-0.92 c-0.539-0.369-1.05-0.779-1.52-1.239c-0.46-0.471-0.88-0.98-1.24-1.521c-0.359-0.55-0.67-1.13-0.92-1.729 c-0.25-0.601-0.439-1.23-0.57-1.87c-0.13-0.65-0.189-1.3-0.189-1.96c0-0.65,0.06-1.3,0.189-1.95c0.131-0.64,0.32-1.27,0.57-1.87 c0.25-0.6,0.561-1.18,0.92-1.729c0.36-0.54,0.78-1.061,1.24-1.521c0.47-0.46,0.98-0.88,1.52-1.24c0.551-0.359,1.131-0.67,1.73-0.92 s1.23-0.439,1.87-0.569c1.29-0.261,2.62-0.261,3.91,0c0.64,0.13,1.27,0.319,1.87,0.569s1.18,0.561,1.729,0.92 c0.54,0.36,1.05,0.78,1.51,1.24c0.471,0.46,0.88,0.98,1.25,1.521c0.36,0.55,0.67,1.13,0.92,1.729c0.25,0.6,0.44,1.23,0.57,1.87 c0.13,0.65,0.19,1.3,0.19,1.95c0,0.66-0.06,1.31-0.19,1.96c-0.13,0.64-0.32,1.27-0.57,1.87c-0.25,0.6-0.56,1.18-0.92,1.729 c-0.37,0.54-0.779,1.05-1.25,1.521c-0.46,0.46-0.97,0.87-1.51,1.239c-0.55,0.36-1.13,0.67-1.729,0.92 c-0.601,0.25-1.23,0.44-1.87,0.57C308.93,177.52,308.28,177.58,307.63,177.58z"/>
	<path d="M182.954,234.844c-3.844,0-7.508-2.229-9.157-5.972c-6.004-13.627-9.177-29.144-9.177-44.872 c0-26.206,8.576-50.638,24.149-68.796c14.443-16.842,33.259-26.116,52.98-26.116c19.721,0,38.537,9.274,52.98,26.116 c3.04,3.545,5.856,7.386,8.371,11.417c2.922,4.685,1.493,10.854-3.193,13.777s-10.854,1.492-13.777-3.193 c-1.981-3.178-4.196-6.199-6.582-8.981c-10.583-12.34-24.007-19.136-37.799-19.136s-27.216,6.796-37.799,19.136 c-12.465,14.535-19.33,34.343-19.33,55.776c0,12.974,2.586,25.702,7.479,36.81c2.227,5.054-0.065,10.956-5.12,13.183 C185.669,234.569,184.3,234.844,182.954,234.844z"/>
	<rect x="146.09" y="460" style="fill:#008C99;" width="192.82" height="42"/>
	<path d="M431.218,49.088h-18.501V10c0-5.523-4.478-10-10-10H80.782c-5.522,0-10,4.477-10,10v49.088c0,5.522,4.478,10,10,10h12.617 v132.055c0,5.522,4.478,10,10,10H127c2.974,16.752,8.686,32.696,16.86,47.005h-5.89c-19.461,0-35.294,15.832-35.294,35.293 s15.833,35.293,35.294,35.293h2.399c2.069,32.789,19.427,61.496,45.008,79.054l-9.814,42.211h-29.479c-5.523,0-10,4.478-10,10V502 c0,5.522,4.477,10,10,10h192.822c5.522,0,10-4.478,10-10v-42.001c0-5.522-4.478-10-10-10h-30.968l-9.21-39.675 c27.71-17.259,46.735-47.206,48.888-81.652c18.493-1.084,33.204-16.471,33.204-35.231c0-19.461-15.832-35.293-35.293-35.293h-5.89 c8.174-14.309,13.886-30.253,16.86-47.005H380.1c5.522,0,10-4.478,10-10V69.088h41.118c5.522,0,10-4.478,10-10 S436.74,49.088,431.218,49.088z M113.399,191.143V69.088h67.035C146.97,92.864,124.619,135.482,124.619,184 c0,2.389,0.055,4.77,0.163,7.143H113.399z M328.907,492H156.085v-22.001h172.822V492z M287.407,449.999h-91.309l7.492-32.227 c12.425,5.268,26.079,8.183,40.402,8.183c12.768,0,25.005-2.317,36.313-6.552L287.407,449.999z M243.992,405.955 c-44.001,0-80.192-34.074-83.572-77.222h167.145C324.185,371.881,287.993,405.955,243.992,405.955z M360.822,293.44 c0,8.433-6.86,15.293-15.293,15.293H137.971c-8.433,0-15.294-6.86-15.294-15.293s6.861-15.293,15.294-15.293H345.53 C353.962,278.147,360.822,285.008,360.822,293.44z M167.579,258.147c-14.837-20.734-22.96-46.867-22.96-74.147 c0-63.362,43.572-114.912,97.13-114.912c53.559,0,97.131,51.55,97.131,114.912c0,27.281-8.123,53.415-22.96,74.147H167.579z M370.1,191.143h-11.383c0.108-2.372,0.163-4.754,0.163-7.143c0-48.518-22.351-91.136-55.816-114.912H370.1V191.143z M90.782,49.088 V20h301.935v29.088C392.717,49.088,90.782,49.088,90.782,49.088z"/>
</svg>
