<svg id="Trowel" enable-background="new 0 0 64 64" height="512" viewBox="0 0 64 64" width="512" xmlns="http://www.w3.org/2000/svg">
	<path d="m2 54h6v8h-6z" fill="#ecc19c"/>
	<path d="m18 54h10v8h-10z" fill="#ecc19c"/>
	<path d="m58 54h4v8h-4z" fill="#ecc19c"/>
	<path d="m48 54v8h-10v-8h4z" fill="#ecc19c"/>
	<path d="m52 46v8h-4-6v-8h6z" fill="#ecc19c"/>
	<path d="m14.78 54c.8 0 1.59-.2 2.29-.58l13.6-7.42h1.33v8h-4-10z" fill="#ecc19c"/>
	<path d="m2 38h6v8h-6z" fill="#ecc19c"/>
	<path d="m48 38v8h-6-4v-8h4z" fill="#ecc19c"/>
	<path d="m58 38h4v8h-4z" fill="#ecc19c"/>
	<path d="m52 30v8h-4-6v-8z" fill="#ecc19c"/>
	<path d="m19.82 30c-.03.05-.05.09-.08.14l-4.29 7.86h-3.45v-8z" fill="#ecc19c"/>
	<g fill="#cf9e76">
		<path d="m18 54v8h-10v-8h6.78z"/>
		<path d="m38 54v8h-10v-8h4z"/>
		<path d="m58 54v8h-10v-8h4z"/>
		<path d="m62 46v8h-4-6v-8h6z"/>
		<path d="m42 46v8h-4-6v-8h6z"/>
		<path d="m10.58 46.93c-.38.7-.58 1.49-.58 2.29 0 1.32.54 2.52 1.4 3.38s2.06 1.4 3.38 1.4h-6.78-6v-8h6 3.09z"/>
		<path d="m15.45 38-4.36 8h-3.09v-8h4z"/>
		<path d="m38 38v8h-6-1.33l3.19-1.74c2.34-1.28 3.87-3.64 4.1-6.26z"/>
		<path d="m58 38v8h-6-4v-8h4z"/>
		<path d="m62 30v8h-4-6v-8z"/>
		<path d="m37 30h5v8h-4-.04c.03-.23.04-.47.04-.71 0-2.11-.84-4.13-2.32-5.61l-.18-.18z"/>
		<path d="m12 30v8h-4-6v-8z"/>
	</g>
	<path d="m55 3c0 3.31 2.69 6 6 6h1l-16 16-7-7 16-16z" fill="#f0d0b4"/>
	<path d="m62 8v1h-1c-3.31 0-6-2.69-6-6v-1h1c3.31 0 6 2.69 6 6z" fill="#fcd770"/>
	<path d="m46 25-3 3-2-2-3-3-2-2 3-3z" fill="#fcd770"/>
	<path d="m38 37.29c0 .24-.01.48-.04.71-.23 2.62-1.76 4.98-4.1 6.26l-3.19 1.74-13.6 7.42c-.7.38-1.49.58-2.29.58-1.32 0-2.52-.54-3.38-1.4s-1.4-2.06-1.4-3.38c0-.8.2-1.59.58-2.29l.51-.93 4.36-8 4.29-7.86c.03-.05.05-.09.08-.14.7-1.22 1.68-2.2 2.84-2.89 1.2-.71 2.6-1.11 4.05-1.11 2.11 0 4.13.84 5.61 2.32l.18.18-2.5 2.5c0 .83.34 1.58.88 2.12s1.29.88 2.12.88l2.5-2.5.18.18c1.48 1.48 2.32 3.5 2.32 5.61z" fill="#e6e9ed"/>
	<path d="m41 26-4 4-1.5 1.5-2.5 2.5c-.83 0-1.58-.34-2.12-.88s-.88-1.29-.88-2.12l2.5-2.5 5.5-5.5z" fill="#aab2bd"/>
	<path d="m14.508 45h2.278v2h-2.278z" transform="matrix(.479 -.878 .878 .479 -32.231 37.724)"/>
	<path d="m24.133 32.531c.551-1.009 1.661-1.611 2.796-1.523l.143-1.995c-1.91-.134-3.771.868-4.694 2.561l-5.971 10.948 1.756.957z"/>
	<path d="m63 8c0-3.86-3.141-7-7-7h-1.414l-20 20 2 2-4.112 4.112c-1.611-1.364-3.628-2.112-5.762-2.112-3.01 0-5.781 1.522-7.428 4h-18.284v34h62v-34h-19.586l19.586-19.586zm-2 0c-2.757 0-5-2.243-5-5 2.757 0 5 2.243 5 5zm-1.29 1.876-13.71 13.71-5.586-5.586 13.71-13.71c.53 2.826 2.76 5.056 5.586 5.586zm-20.71 9.538 5.586 5.586-1.586 1.586-5.586-5.586zm.586 6.586-6.964 6.964c-.801-.153-1.433-.786-1.586-1.585l6.964-6.965zm-24.725 11h-1.861v-6h5.133zm-1.091 2-3.272 6h-1.498v-6zm-6.77 6h-4v-6h4zm2.45 2c-.292.702-.45 1.457-.45 2.219 0 1.446.537 2.766 1.418 3.781h-7.418v-6zm7.55 8v6h-8v-6zm30-16v6h-8v-6zm-4 14v-6h8v6zm-10 0v-6h8v6zm4-8h-2.446c.948-.553 1.775-1.26 2.446-2.088zm-6.077 2h.077v6h-11.079zm-11.923 8h8v6h-8zm10 0h8v6h-8zm10 0h8v6h-8zm10 0h8v6h-8zm4-2v-6h8v6zm6-8v-6h2v6zm-2 0h-8v-6h8zm-14-8v-6h8v6zm-2 0h-2.014c-.064-2.028-.796-3.937-2.098-5.474l.526-.526h3.586zm-20.379-6.384c1.217-2.231 3.551-3.616 6.091-3.616 1.6 0 3.116.54 4.344 1.53l-2.056 2.056v.414c0 2.206 1.794 4 4 4h.414l2.055-2.055c.991 1.227 1.531 2.743 1.531 4.343 0 2.54-1.386 4.874-3.615 6.091l-16.793 9.159c-.555.302-1.181.462-1.811.462-2.085 0-3.781-1.696-3.781-3.781 0-.63.16-1.256.462-1.811zm-9.621.384v6h-8v-6zm-8 24h4v6h-4zm56 6v-6h2v6zm2-24h-8v-6h8zm-21.586-8 1.586-1.586 1.586 1.586z"/>
</svg>
