<svg version="1.1" id="Wire" xmlns="http://www.w3.org/2000/svg" xmlns:xlink="http://www.w3.org/1999/xlink" x="0px" y="0px" viewBox="0 0 512 512" style="enable-background:new 0 0 512 512;" xml:space="preserve">
	<path style="fill:#FF7357;" d="M463.5,37.5h-360c-8.284,0-15-6.716-15-15l0,0c0-8.284,6.716-15,15-15h360c8.284,0,15,6.716,15,15 l0,0C478.5,30.784,471.784,37.5,463.5,37.5z"/>
	<path style="fill:#FB624C;" d="M463.5,7.5h-30c8.284,0,15,6.716,15,15s-6.716,15-15,15h30c8.284,0,15-6.716,15-15 S471.784,7.5,463.5,7.5z"/>
	<path style="fill:#FF7357;" d="M463.5,504.5h-360c-8.284,0-15-6.716-15-15l0,0c0-8.284,6.716-15,15-15h360c8.284,0,15,6.716,15,15 l0,0C478.5,497.784,471.784,504.5,463.5,504.5z"/>
	<path style="fill:#FB624C;" d="M463.5,474.5h-30c8.284,0,15,6.716,15,15s-6.716,15-15,15h30c8.284,0,15-6.716,15-15 S471.784,474.5,463.5,474.5z"/>
	<rect x="133.5" y="37.5" style="fill:#4A575E;" width="300" height="437"/>
	<rect x="403.5" y="37.5" style="fill:#3A4449;" width="30" height="437"/>
	<path style="fill:#E6E6E6;" d="M434.5,121h-302c-8.284,0-15-6.716-15-15l0,0c0-8.284,6.716-15,15-15h302c8.284,0,15,6.716,15,15l0,0 C449.5,114.284,442.784,121,434.5,121z"/>
	<path style="fill:#CCCCCC;" d="M434.5,151h-302c-8.284,0-15-6.716-15-15l0,0c0-8.284,6.716-15,15-15h302c8.284,0,15,6.716,15,15l0,0 C449.5,144.284,442.784,151,434.5,151z"/>
	<path style="fill:#E6E6E6;" d="M434.5,181h-302c-8.284,0-15-6.716-15-15l0,0c0-8.284,6.716-15,15-15h302c8.284,0,15,6.716,15,15l0,0 C449.5,174.284,442.784,181,434.5,181z"/>
	<path style="fill:#CCCCCC;" d="M434.5,211h-302c-8.284,0-15-6.716-15-15l0,0c0-8.284,6.716-15,15-15h302c8.284,0,15,6.716,15,15l0,0 C449.5,204.284,442.784,211,434.5,211z"/>
	<path style="fill:#E6E6E6;" d="M434.5,241h-302c-8.284,0-15-6.716-15-15l0,0c0-8.284,6.716-15,15-15h302c8.284,0,15,6.716,15,15l0,0 C449.5,234.284,442.784,241,434.5,241z"/>
	<path style="fill:#CCCCCC;" d="M434.5,271h-302c-8.284,0-15-6.716-15-15l0,0c0-8.284,6.716-15,15-15h302c8.284,0,15,6.716,15,15l0,0 C449.5,264.284,442.784,271,434.5,271z"/>
	<path style="fill:#E6E6E6;" d="M434.5,301h-302c-8.284,0-15-6.716-15-15l0,0c0-8.284,6.716-15,15-15h302c8.284,0,15,6.716,15,15l0,0 C449.5,294.284,442.784,301,434.5,301z"/>
	<path style="fill:#CCCCCC;" d="M434.5,331h-386c-8.284,0-15-6.716-15-15l0,0c0-8.284,6.716-15,15-15h386c8.284,0,15,6.716,15,15l0,0 C449.5,324.284,442.784,331,434.5,331z"/>
	<path style="fill:#E6E6E6;" d="M434.5,361h-302c-8.284,0-15-6.716-15-15l0,0c0-8.284,6.716-15,15-15h302c8.284,0,15,6.716,15,15l0,0 C449.5,354.284,442.784,361,434.5,361z"/>
	<path style="fill:#CCCCCC;" d="M434.5,391h-302c-8.284,0-15-6.716-15-15l0,0c0-8.284,6.716-15,15-15h302c8.284,0,15,6.716,15,15l0,0 C449.5,384.284,442.784,391,434.5,391z"/>
	<path style="fill:#CCCCCC;" d="M434.5,391h-30c8.284,0,15,6.716,15,15s-6.716,15-15,15h30 c8.284,0,15-6.716,15-15S442.784,391,434.5,391z"/>
	<path style="fill:#E6E6E6;" d="M434.5,421h-302c-8.284,0-15-6.716-15-15l0,0c0-8.284,6.716-15,15-15h302c8.284,0,15,6.716,15,15l0,0 C449.5,414.284,442.784,421,434.5,421z"/>
	<path style="fill:#CCCCCC;" d="M434.5,391h-30c8.284,0,15,6.716,15,15s-6.716,15-15,15h30 c8.284,0,15-6.716,15-15S442.784,391,434.5,391z"/>
	<path style="fill:#B3B3B3;" d="M434.5,361h-30c8.284,0,15,6.716,15,15s-6.716,15-15,15h30c8.284,0,15-6.716,15-15 S442.784,361,434.5,361z"/>
	<path style="fill:#CCCCCC;" d="M434.5,331h-30c8.284,0,15,6.716,15,15s-6.716,15-15,15h30c8.284,0,15-6.716,15-15 S442.784,331,434.5,331z"/>
	<path style="fill:#B3B3B3;" d="M434.5,301h-30c8.284,0,15,6.716,15,15s-6.716,15-15,15h30c8.284,0,15-6.716,15-15 S442.784,301,434.5,301z"/>
	<path style="fill:#CCCCCC;" d="M434.5,271h-30c8.284,0,15,6.716,15,15s-6.716,15-15,15h30c8.284,0,15-6.716,15-15 S442.784,271,434.5,271z"/>
	<path style="fill:#B3B3B3;" d="M434.5,241h-30c8.284,0,15,6.716,15,15s-6.716,15-15,15h30c8.284,0,15-6.716,15-15 S442.784,241,434.5,241z"/>
	<path style="fill:#CCCCCC;" d="M434.5,211h-30c8.284,0,15,6.716,15,15s-6.716,15-15,15h30c8.284,0,15-6.716,15-15 S442.784,211,434.5,211z"/>
	<path style="fill:#B3B3B3;" d="M434.5,181h-30c8.284,0,15,6.716,15,15s-6.716,15-15,15h30c8.284,0,15-6.716,15-15 S442.784,181,434.5,181z"/>
	<path style="fill:#CCCCCC;" d="M434.5,151h-30c8.284,0,15,6.716,15,15s-6.716,15-15,15h30c8.284,0,15-6.716,15-15 S442.784,151,434.5,151z"/>
	<path style="fill:#B3B3B3;" d="M434.5,121h-30c8.284,0,15,6.716,15,15s-6.716,15-15,15h30c8.284,0,15-6.716,15-15 S442.784,121,434.5,121z"/>
	<path style="fill:#CCCCCC;" d="M434.5,91h-30c8.284,0,15,6.716,15,15s-6.716,15-15,15h30c8.284,0,15-6.716,15-15 S442.784,91,434.5,91z"/>
	<path d="M463.5,467H441v-39.461c9.247-2.796,16-11.392,16-21.539c0-5.758-2.177-11.016-5.747-15c3.571-3.984,5.747-9.242,5.747-15 s-2.177-11.016-5.747-15c3.571-3.984,5.747-9.242,5.747-15s-2.177-11.016-5.747-15c3.571-3.984,5.747-9.242,5.747-15 s-2.177-11.016-5.747-15c3.571-3.984,5.747-9.242,5.747-15s-2.177-11.016-5.747-15c3.571-3.984,5.747-9.242,5.747-15 s-2.177-11.016-5.747-15c3.571-3.984,5.747-9.242,5.747-15s-2.177-11.016-5.747-15c3.571-3.984,5.747-9.242,5.747-15 s-2.177-11.016-5.747-15c3.571-3.984,5.747-9.242,5.747-15s-2.177-11.016-5.747-15c3.571-3.984,5.747-9.242,5.747-15 s-2.177-11.016-5.747-15c3.571-3.984,5.747-9.242,5.747-15c0-10.147-6.753-18.743-16-21.539v-4.294c0-4.142-3.358-7.5-7.5-7.5 s-7.5,3.358-7.5,7.5V83.5H198c-4.142,0-7.5,3.358-7.5,7.5s3.358,7.5,7.5,7.5h236.5c4.136,0,7.5,3.364,7.5,7.5s-3.364,7.5-7.5,7.5 h-302c-4.136,0-7.5-3.364-7.5-7.5s3.364-7.5,7.5-7.5H166c4.142,0,7.5-3.358,7.5-7.5s-3.358-7.5-7.5-7.5h-25V45h285v2.833 c0,4.142,3.358,7.5,7.5,7.5s7.5-3.358,7.5-7.5V45h22.5c12.407,0,22.5-10.093,22.5-22.5S475.907,0,463.5,0h-360 C91.093,0,81,10.093,81,22.5S91.093,45,103.5,45H126v39.461c-9.247,2.796-16,11.392-16,21.539c0,5.758,2.177,11.016,5.747,15 c-3.571,3.984-5.747,9.242-5.747,15s2.177,11.016,5.747,15c-3.571,3.984-5.747,9.242-5.747,15s2.177,11.016,5.747,15 c-3.571,3.984-5.747,9.242-5.747,15s2.177,11.016,5.747,15c-3.571,3.984-5.747,9.242-5.747,15s2.177,11.016,5.747,15 c-3.571,3.984-5.747,9.242-5.747,15s2.177,11.016,5.747,15c-3.571,3.984-5.747,9.242-5.747,15c0,2.629,0.458,5.153,1.29,7.5H48.5 C36.093,293.5,26,303.593,26,316s10.093,22.5,22.5,22.5h62.79c-0.833,2.347-1.29,4.871-1.29,7.5c0,5.758,2.177,11.016,5.747,15 c-3.571,3.984-5.747,9.242-5.747,15s2.177,11.016,5.747,15c-3.571,3.984-5.747,9.242-5.747,15c0,10.147,6.753,18.743,16,21.539V467 h-22.5C91.093,467,81,477.093,81,489.5S91.093,512,103.5,512h360c12.407,0,22.5-10.093,22.5-22.5S475.907,467,463.5,467z M96,22.5 c0-4.136,3.364-7.5,7.5-7.5h360c4.136,0,7.5,3.364,7.5,7.5s-3.364,7.5-7.5,7.5l0,0h-360l0,0C99.364,30,96,26.636,96,22.5z M125,376 c0-4.136,3.364-7.5,7.5-7.5h302c4.136,0,7.5,3.364,7.5,7.5s-3.364,7.5-7.5,7.5h-302C128.364,383.5,125,380.136,125,376z M125,256 c0-4.136,3.364-7.5,7.5-7.5h302c4.136,0,7.5,3.364,7.5,7.5c0,4.136-3.364,7.5-7.5,7.5h-302C128.364,263.5,125,260.136,125,256z M125,226c0-4.136,3.364-7.5,7.5-7.5h302c4.136,0,7.5,3.364,7.5,7.5s-3.364,7.5-7.5,7.5h-302C128.364,233.5,125,230.136,125,226z M125,196c0-4.136,3.364-7.5,7.5-7.5h302c4.136,0,7.5,3.364,7.5,7.5s-3.364,7.5-7.5,7.5h-302C128.364,203.5,125,200.136,125,196z M125,166c0-4.136,3.364-7.5,7.5-7.5h302c4.136,0,7.5,3.364,7.5,7.5s-3.364,7.5-7.5,7.5h-302C128.364,173.5,125,170.136,125,166z M434.5,128.5c4.136,0,7.5,3.364,7.5,7.5s-3.364,7.5-7.5,7.5h-302c-4.136,0-7.5-3.364-7.5-7.5s3.364-7.5,7.5-7.5H434.5z M125,286 c0-4.136,3.364-7.5,7.5-7.5h302c4.136,0,7.5,3.364,7.5,7.5s-3.364,7.5-7.5,7.5h-302C128.364,293.5,125,290.136,125,286z M41,316 c0-4.136,3.364-7.5,7.5-7.5l0,0h386c4.136,0,7.5,3.364,7.5,7.5s-3.364,7.5-7.5,7.5h-386l0,0C44.364,323.5,41,320.136,41,316z M434.5,338.5c4.136,0,7.5,3.364,7.5,7.5s-3.364,7.5-7.5,7.5h-302c-4.136,0-7.5-3.364-7.5-7.5s3.364-7.5,7.5-7.5H434.5z M141,428.5 h217c4.142,0,7.5-3.358,7.5-7.5s-3.358-7.5-7.5-7.5H132.5c-4.136,0-7.5-3.364-7.5-7.5s3.364-7.5,7.5-7.5h302 c4.136,0,7.5,3.364,7.5,7.5s-3.364,7.5-7.5,7.5h-44.167c-4.142,0-7.5,3.358-7.5,7.5s3.358,7.5,7.5,7.5H426V467H141V428.5z M463.5,497h-360c-4.136,0-7.5-3.364-7.5-7.5s3.364-7.5,7.5-7.5l0,0h360l0,0c4.136,0,7.5,3.364,7.5,7.5S467.636,497,463.5,497z"/>
</svg>
