<svg id="Woods" height="512pt" viewBox="0 0 512 512" width="512pt" xmlns="http://www.w3.org/2000/svg">
	<path d="m114.753906 160.863281h282.292969v48.769531h-282.292969zm0 0" fill="#e86a36"/>
	<path d="m114.753906 354.863281h282.292969v48.769531h-282.292969zm0 0" fill="#e86a36"/>
	<path d="m255.992188 160.863281h141.054687v48.769531h-141.054687zm0 0" fill="#ba5529"/>
	<path d="m255.992188 354.863281h141.054687v48.769531h-141.054687zm0 0" fill="#ba5529"/>
	<path d="m326.953125 512h-142.105469v-450.398438l71.054688-61.601562 71.050781 61.992188zm0 0" fill="#fdbf00"/>
	<path d="m326.953125 512h-71.050781v-512l71.050781 61.992188zm0 0" fill="#f28f1b"/>
	<path d="m511.800781 512h-142.105469v-450.398438l73.914063-61.601562 68.191406 61.996094zm0 0" fill="#f28f1b"/>
	<path d="m142.105469 512h-142.105469v-450.398438l73.917969-61.601562 68.191406 61.992188v450.007812zm0 0" fill="#fdbf00"/>
	<path d="m72.0625 200.890625c7.925781 0 15.519531-6.96875 15.152344-15.152344-.367188-8.207031-6.65625-15.148437-15.152344-15.148437-7.921875 0-15.515625 6.96875-15.148438 15.148437.367188 8.210938 6.65625 15.152344 15.148438 15.152344zm0 0" fill="#ffee26"/>
	<path d="m439.738281 200.890625c7.925781 0 15.519531-6.96875 15.152344-15.152344-.371094-8.207031-6.660156-15.148437-15.152344-15.148437-7.925781 0-15.519531 6.96875-15.152343 15.148437.367187 8.210938 6.65625 15.152344 15.152343 15.152344zm0 0" fill="#ffda2d"/>
	<path d="m72.0625 394.828125c7.925781 0 15.519531-6.96875 15.152344-15.148437-.367188-8.210938-6.65625-15.152344-15.152344-15.152344-7.921875 0-15.515625 6.96875-15.148438 15.152344.367188 8.207031 6.65625 15.148437 15.148438 15.148437zm0 0" fill="#ffee26"/>
	<path d="m255.902344 394.828125c7.921875 0 15.515625-6.96875 15.148437-15.148437-.367187-8.210938-6.65625-15.152344-15.148437-15.152344-7.925782 0-15.519532 6.96875-15.152344 15.152344.367188 8.207031 6.65625 15.148437 15.152344 15.148437zm0 0" fill="#ffee26"/>
	<path d="m255.902344 394.828125c7.921875 0 15.515625-6.96875 15.148437-15.148437-.367187-8.210938-6.65625-15.152344-15.148437-15.152344zm0 0" fill="#ffda2d"/>
	<path d="m439.738281 394.828125c7.925781 0 15.519531-6.96875 15.152344-15.148437-.371094-8.210938-6.660156-15.152344-15.152344-15.152344-7.925781 0-15.519531 6.96875-15.152343 15.152344.367187 8.207031 6.65625 15.148437 15.152343 15.148437zm0 0" fill="#ffda2d"/>
	<path d="m255.902344 200.890625c7.921875 0 15.515625-6.96875 15.148437-15.152344-.367187-8.207031-6.65625-15.148437-15.148437-15.148437-7.925782 0-15.519532 6.96875-15.152344 15.148437.367188 8.210938 6.65625 15.152344 15.152344 15.152344zm0 0" fill="#ffee26"/>
	<path d="m255.902344 200.890625c7.921875 0 15.515625-6.96875 15.148437-15.152344-.367187-8.207031-6.65625-15.148437-15.148437-15.148437zm0 0" fill="#ffda2d"/>
</svg>
