<svg version="1.0" id="Logo" xmlns="http://www.w3.org/2000/svg" width="2633pt" height="1463pt" viewBox="0 0 2633 1463" preserveAspectRatio="xMidYMid meet">
	<g transform="translate(0.0,1463.0) scale(0.1,-0.1)" stroke="none">
		<path d="M13090 13670 c-30 -32 -56 -64 -58 -69 -2 -6 -10 -11 -18 -11 -8 0 -42 -27 -74 -60 -33 -33 -63 -59 -67 -58 -5 2 -29 -17 -54 -42 -80 -78 -139 -130 -149 -130 -6 0 -45 -36 -89 -80 -43 -44 -82 -80 -86 -80 -3 0 -28 -22 -55 -50 -27 -27 -54 -50 -60 -50 -5 0 -44 -34 -85 -75 -42 -41 -80 -75 -86 -75 -6 0 -28 -17 -49 -37 -53 -53 -130 -123 -135 -123 -2 0 -36 -31 -74 -70 -39 -38 -75 -70 -80 -70 -6 0 -46 -36 -90 -80 -45 -44 -84 -79 -89 -78 -4 2 -40 -29 -79 -69 -39 -39 -74 -69 -77 -66 -3 4 -6 1 -6 -5 0 -7 -5 -12 -11 -12 -7 0 -42 -31 -80 -70 -37 -38 -72 -70 -78 -70 -5 0 -42 -31 -80 -70 -39 -38 -75 -70 -80 -70 -5 0 -46 -36 -90 -79 -43 -44 -82 -77 -85 -74 -3 3 -36 -26 -74 -64 -40 -41 -74 -68 -82 -65 -8 3 -42 30 -76 61 -33 31 -71 63 -83 72 -12 9 -50 44 -84 76 -34 33 -69 64 -79 69 -9 5 -50 42 -92 82 -41 39 -78 72 -82 72 -3 0 -33 26 -66 58 -32 31 -64 59 -70 61 -5 2 -44 35 -85 75 -41 39 -82 75 -91 80 -9 5 -49 41 -89 79 -40 38 -83 77 -95 85 -13 9 -49 40 -80 70 -31 30 -67 61 -80 70 -13 9 -53 45 -90 81 -37 35 -78 71 -90 79 -13 9 -50 42 -83 73 -33 32 -73 68 -90 80 -38 29 -188 162 -238 212 -21 20 -40 37 -43 37 -4 0 -50 39 -103 88 -54 48 -145 129 -204 180 -59 52 -123 109 -142 128 l-35 34 -68 -64 c-37 -35 -105 -97 -152 -137 -47 -39 -124 -107 -171 -151 -48 -43 -89 -78 -92 -78 -4 0 -23 -17 -44 -37 -50 -50 -200 -183 -238 -212 -16 -12 -57 -48 -90 -80 -33 -31 -69 -64 -81 -72 -11 -8 -58 -48 -104 -89 -86 -78 -161 -145 -271 -242 -35 -31 -80 -72 -100 -91 -20 -19 -43 -39 -52 -43 -9 -5 -49 -41 -90 -80 -41 -40 -80 -73 -85 -75 -6 -2 -42 -34 -81 -71 -39 -38 -74 -68 -79 -68 -4 0 -28 -21 -52 -46 -25 -26 -67 -64 -95 -86 -53 -42 -138 -118 -259 -230 -40 -38 -76 -68 -79 -68 -4 0 -39 -30 -78 -67 -39 -38 -76 -70 -82 -72 -6 -2 -44 -36 -85 -75 -40 -39 -81 -75 -90 -80 -10 -5 -44 -35 -77 -66 -33 -32 -91 -84 -130 -117 -38 -33 -81 -72 -94 -87 -14 -14 -28 -26 -33 -26 -9 0 -115 -98 -203 -186 -27 -29 -84 -77 -125 -107 -41 -31 -93 -74 -115 -96 -21 -23 -42 -41 -45 -41 -4 0 -45 -36 -91 -80 -46 -44 -88 -80 -93 -80 -4 0 -40 -31 -80 -69 -39 -38 -87 -82 -106 -97 -19 -16 -96 -83 -171 -149 -75 -66 -149 -131 -165 -145 -59 -52 -703 -619 -720 -635 -6 -5 -62 -55 -124 -110 -63 -55 -155 -137 -206 -182 -51 -46 -95 -83 -98 -83 -3 0 -22 -17 -43 -38 -21 -20 -54 -50 -73 -66 -19 -15 -62 -54 -95 -85 -33 -31 -73 -67 -89 -79 -16 -13 -60 -51 -97 -85 -37 -34 -87 -79 -111 -99 -24 -20 -58 -51 -76 -67 -17 -17 -35 -31 -38 -31 -3 0 -37 -30 -74 -66 -38 -36 -79 -73 -92 -82 -12 -8 -55 -45 -94 -81 -39 -36 -80 -73 -92 -82 -12 -9 -51 -44 -87 -77 -36 -34 -68 -62 -73 -62 -4 0 -15 -8 -23 -17 -33 -38 -149 -143 -157 -143 -4 0 -28 -21 -52 -46 -25 -26 -67 -64 -95 -86 -27 -22 -80 -68 -116 -102 -37 -33 -76 -68 -88 -77 -12 -9 -46 -39 -75 -68 -30 -28 -57 -51 -61 -51 -3 0 -42 -35 -86 -77 -44 -43 -86 -80 -92 -82 -7 -2 -38 -29 -70 -60 -32 -31 -63 -58 -70 -60 -6 -2 -43 -34 -81 -71 -39 -37 -101 -93 -138 -124 -67 -56 -80 -80 -56 -104 9 -9 191 -12 756 -12 l744 0 38 40 c21 22 43 40 49 40 6 0 48 36 92 80 45 44 83 80 86 80 5 0 38 29 104 93 28 27 53 46 56 43 3 -2 36 26 74 65 37 38 73 69 79 69 6 0 46 36 91 80 44 44 82 80 85 80 2 0 32 27 65 60 33 33 64 60 69 60 9 0 68 51 139 120 19 19 39 34 44 32 4 -1 43 34 87 78 43 44 86 80 95 80 8 0 15 4 15 8 0 13 141 152 154 152 4 0 22 15 40 33 19 17 52 49 73 70 22 20 44 37 49 37 5 0 44 34 87 75 42 41 81 75 87 75 5 0 40 32 77 70 37 39 71 70 75 70 4 0 40 32 79 70 40 39 77 70 82 70 5 0 45 36 90 80 44 43 83 77 87 75 4 -2 33 23 65 55 33 33 63 60 68 60 4 0 43 36 87 80 44 44 84 80 90 80 5 0 47 36 91 80 45 44 87 80 94 80 6 0 42 32 80 70 37 39 70 69 72 66 3 -3 40 31 84 75 43 43 83 79 89 79 6 0 42 32 81 70 38 39 74 70 79 70 6 0 47 36 92 80 45 44 83 78 86 76 2 -3 35 26 73 65 37 38 73 69 79 69 6 0 46 36 91 80 44 44 84 80 90 80 5 0 41 32 80 70 38 39 74 70 80 70 5 0 41 32 80 71 38 40 72 69 75 66 3 -3 42 30 85 74 44 43 85 79 90 79 5 0 41 32 80 70 38 39 75 70 80 70 6 0 41 32 78 70 38 39 73 70 80 70 6 0 11 5 11 12 0 6 3 9 6 5 3 -3 38 27 77 66 39 40 75 71 79 69 5 -1 44 34 89 78 44 44 84 80 90 80 5 0 41 32 80 70 38 39 72 70 74 70 5 0 82 70 135 123 21 20 43 37 49 37 6 0 44 34 86 75 41 41 80 75 85 75 6 0 33 23 60 50 27 28 52 50 55 50 4 0 43 36 86 80 44 44 83 80 89 80 10 0 69 52 149 130 25 25 49 44 54 42 4 -1 34 25 67 58 32 33 66 60 74 60 9 0 16 4 16 8 0 13 117 132 130 132 7 0 29 -19 49 -42 67 -77 89 -98 101 -98 6 0 38 -27 70 -60 33 -33 63 -59 67 -58 5 2 29 -17 55 -42 86 -83 139 -130 148 -130 11 0 94 -82 130 -128 14 -18 31 -32 38 -32 7 0 35 -22 62 -50 27 -27 54 -50 60 -50 5 0 44 -34 85 -75 42 -41 80 -75 86 -75 6 0 33 -21 60 -47 76 -74 118 -113 123 -113 3 0 37 -31 75 -70 39 -38 75 -70 81 -70 6 0 47 -36 90 -80 44 -44 83 -79 87 -78 5 2 43 -32 86 -74 42 -43 82 -78 87 -78 6 0 37 -27 69 -60 33 -33 64 -60 70 -60 5 0 46 -36 90 -80 45 -44 85 -80 91 -80 6 0 46 -36 89 -79 44 -44 82 -77 85 -74 3 3 32 -22 64 -56 32 -33 63 -61 69 -61 6 0 47 -36 92 -80 44 -44 86 -80 91 -80 6 0 46 -36 90 -80 44 -44 84 -80 90 -80 6 0 41 -30 77 -67 36 -38 69 -67 73 -66 4 1 39 -29 78 -67 39 -39 76 -70 81 -70 6 0 46 -36 90 -80 45 -44 85 -80 91 -80 6 0 42 -31 79 -69 38 -39 71 -68 73 -66 2 3 40 -31 83 -75 44 -44 85 -80 91 -80 6 0 48 -36 93 -80 44 -44 86 -80 91 -80 6 0 38 -27 70 -60 32 -33 62 -60 65 -60 3 0 42 -35 86 -77 45 -43 87 -77 95 -75 8 2 14 -2 14 -7 0 -6 23 -32 52 -58 28 -26 62 -58 74 -70 13 -13 30 -23 39 -23 8 0 15 -7 15 -15 0 -8 4 -15 10 -15 5 0 34 -25 65 -55 30 -30 58 -55 62 -55 4 0 37 -31 74 -70 37 -39 72 -70 78 -70 6 0 45 -34 88 -75 42 -41 81 -75 86 -75 8 0 41 -29 123 -107 18 -18 37 -33 41 -33 5 0 43 -36 86 -80 42 -44 82 -80 87 -80 6 0 47 -36 90 -80 44 -44 83 -79 87 -78 4 2 35 -23 67 -55 33 -31 64 -57 70 -57 6 0 43 -32 81 -70 39 -39 73 -70 76 -70 4 0 48 -41 98 -90 50 -50 96 -90 101 -90 6 0 42 -31 79 -69 38 -39 71 -67 74 -64 3 2 38 -27 78 -66 40 -39 76 -71 80 -71 4 0 43 -36 88 -80 44 -44 86 -80 92 -80 6 0 28 -18 49 -40 l38 -40 744 0 c565 0 747 3 756 12 24 24 11 48 -55 104 -38 31 -100 87 -139 124 -38 37 -75 69 -81 71 -7 2 -38 29 -70 60 -32 31 -63 58 -70 60 -6 2 -47 38 -90 80 -44 42 -84 78 -90 80 -10 4 -129 111 -258 232 -34 31 -66 57 -71 57 -5 0 -41 32 -79 70 -38 39 -73 70 -78 70 -5 0 -39 28 -75 63 -36 34 -74 70 -84 80 -10 9 -20 17 -23 17 -3 0 -34 28 -70 62 -36 33 -75 68 -87 77 -12 9 -53 46 -92 82 -39 36 -79 70 -88 75 -9 5 -50 42 -91 82 -41 39 -78 72 -82 72 -4 0 -31 23 -61 51 -29 29 -63 59 -75 68 -11 9 -52 45 -90 80 -38 35 -83 74 -100 87 -16 12 -62 53 -102 91 -40 38 -82 75 -94 84 -12 9 -51 42 -86 75 -35 32 -75 68 -88 78 -13 11 -78 67 -143 125 -65 59 -145 129 -176 156 -32 28 -145 127 -251 221 -107 94 -257 226 -334 294 -77 68 -152 136 -168 152 -15 15 -30 28 -32 28 -6 0 -341 296 -427 376 -31 30 -60 54 -65 54 -4 0 -46 36 -92 80 -46 44 -87 80 -91 80 -4 0 -14 7 -21 17 -8 9 -50 48 -94 86 -44 38 -108 96 -141 128 -34 33 -66 59 -71 59 -18 0 -45 39 -39 55 3 9 10 14 16 10 5 -3 46 30 90 75 45 44 85 80 91 80 5 0 41 32 80 70 38 39 72 70 74 70 5 0 82 70 135 123 21 20 43 37 49 37 6 0 44 34 86 75 41 41 80 75 85 75 6 0 33 23 60 50 27 28 52 50 55 50 4 0 43 36 86 80 44 44 83 80 89 80 10 0 69 52 149 130 25 25 49 44 54 42 4 -1 34 25 67 58 32 33 66 60 74 60 9 0 16 4 16 8 0 13 117 132 130 132 7 0 29 -19 49 -42 67 -77 89 -98 101 -98 6 0 38 -27 70 -60 33 -33 63 -59 67 -58 5 2 29 -17 55 -42 86 -83 139 -130 148 -130 11 0 94 -82 130 -128 14 -18 31 -32 38 -32 7 0 35 -22 62 -50 27 -27 54 -50 60 -50 5 0 44 -34 85 -75 42 -41 80 -75 86 -75 6 0 33 -21 60 -47 76 -74 118 -113 123 -113 3 0 37 -31 75 -70 39 -38 75 -70 81 -70 6 0 47 -36 90 -80 44 -44 83 -79 87 -78 5 2 43 -32 86 -74 42 -43 82 -78 87 -78 6 0 37 -27 69 -60 33 -33 64 -60 70 -60 5 0 46 -36 90 -80 45 -44 85 -80 91 -80 6 0 46 -36 89 -79 44 -44 82 -77 85 -74 3 3 32 -22 64 -56 32 -33 63 -61 69 -61 6 0 47 -36 92 -80 44 -44 86 -80 91 -80 6 0 46 -36 90 -80 44 -44 84 -80 90 -80 6 0 41 -30 77 -67 36 -38 69 -67 73 -66 4 1 39 -29 78 -67 39 -39 76 -70 81 -70 6 0 46 -36 90 -80 45 -44 85 -80 91 -80 6 0 42 -31 79 -69 38 -39 71 -68 73 -66 2 3 40 -31 83 -75 44 -44 85 -80 91 -80 6 0 48 -36 93 -80 44 -44 86 -80 91 -80 6 0 38 -27 70 -60 32 -33 62 -60 65 -60 3 0 42 -35 86 -77 45 -43 87 -77 95 -75 8 2 14 -2 14 -7 0 -6 23 -32 52 -58 28 -26 62 -58 74 -70 13 -13 30 -23 39 -23 8 0 15 -7 15 -15 0 -8 4 -15 10 -15 5 0 34 -25 65 -55 30 -30 58 -55 62 -55 4 0 37 -31 74 -70 37 -38 72 -70 78 -70 6 0 45 -34 88 -75 42 -41 81 -75 86 -75 8 0 41 -29 123 -107 18 -18 37 -33 41 -33 5 0 43 -36 86 -80 42 -44 82 -80 87 -80 6 0 47 -36 90 -80 44 -44 83 -79 87 -78 4 2 35 -23 67 -55 33 -31 64 -57 70 -57 6 0 43 -32 81 -70 39 -39 73 -70 76 -70 4 0 48 -40 98 -90 50 -49 96 -90 101 -90 6 0 42 -31 79 -69 38 -39 71 -67 74 -64 3 2 38 -27 78 -66 40 -39 76 -71 80 -71 4 0 43 -36 88 -80 44 -44 86 -80 92 -80 6 0 28 -18 49 -40 l38 -40 749 0 c778 0 773 0 773 40 0 18 -107 131 -120 127 -5 -1 -42 33 -83 76 -41 42 -80 77 -87 77 -6 0 -38 27 -70 60 -32 33 -64 60 -70 60 -5 0 -47 36 -91 80 -45 44 -86 80 -92 80 -5 0 -49 38 -96 85 -47 47 -90 86 -96 87 -5 1 -36 28 -67 60 -31 32 -62 58 -68 58 -6 0 -42 32 -80 70 -38 39 -74 70 -80 70 -6 0 -47 36 -92 80 -45 44 -85 80 -89 80 -5 0 -42 34 -84 75 -41 41 -79 75 -85 75 -6 0 -42 32 -80 70 -38 39 -74 70 -80 70 -5 0 -47 36 -91 80 -45 44 -84 80 -88 80 -4 0 -40 32 -80 71 -40 39 -75 68 -78 66 -3 -3 -36 25 -74 64 -37 38 -73 69 -79 69 -5 0 -51 41 -101 90 -50 50 -94 90 -98 90 -3 0 -37 31 -76 70 -38 38 -75 70 -81 70 -6 0 -37 26 -70 57 -32 32 -63 57 -67 55 -4 -1 -43 34 -87 78 -43 44 -84 80 -90 80 -5 0 -45 36 -87 80 -43 44 -81 80 -86 80 -4 0 -23 15 -41 33 -82 78 -115 107 -123 107 -5 0 -44 34 -86 75 -43 41 -82 75 -88 75 -6 0 -41 32 -78 70 -37 39 -70 70 -74 70 -4 0 -32 25 -62 55 -31 30 -60 55 -65 55 -6 0 -10 7 -10 15 0 8 -7 15 -15 15 -9 0 -26 10 -39 23 -12 12 -46 44 -74 70 -29 26 -52 52 -52 58 0 5 -6 9 -14 7 -8 -2 -50 32 -95 75 -44 42 -83 77 -86 77 -3 0 -33 27 -65 60 -32 33 -64 60 -70 60 -5 0 -47 36 -91 80 -45 44 -87 80 -93 80 -6 0 -47 36 -91 80 -43 44 -81 78 -83 75 -2 -2 -35 27 -73 66 -37 38 -73 69 -79 69 -6 0 -46 36 -91 80 -44 44 -84 80 -90 80 -5 0 -42 31 -81 70 -39 38 -74 68 -78 67 -4 -1 -37 28 -73 66 -36 37 -71 67 -77 67 -6 0 -46 36 -90 80 -44 44 -84 80 -90 80 -5 0 -47 36 -91 80 -45 44 -86 80 -92 80 -6 0 -37 28 -69 61 -32 34 -61 59 -64 56 -3 -3 -41 30 -85 74 -43 43 -83 79 -89 79 -6 0 -46 36 -91 80 -44 44 -85 80 -90 80 -6 0 -37 27 -70 60 -32 33 -63 60 -69 60 -5 0 -45 35 -87 78 -43 42 -81 76 -86 74 -4 -1 -43 34 -87 78 -43 44 -84 80 -90 80 -6 0 -42 32 -81 70 -38 39 -72 70 -75 70 -5 0 -47 39 -123 113 -27 26 -54 47 -60 47 -6 0 -44 34 -86 75 -41 41 -80 75 -85 75 -6 0 -33 23 -60 50 -27 28 -55 50 -62 50 -7 0 -24 14 -38 32 -36 46 -119 128 -130 128 -9 0 -62 47 -148 130 -26 25 -50 44 -55 42 -4 -1 -34 25 -67 58 -32 33 -64 60 -70 60 -12 0 -34 21 -101 98 -20 23 -43 42 -50 42 -8 -1 -39 -27 -69 -60z"/>
		<path d="M6840 9435 l0 -765 765 0 765 0 0 765 0 765 -765 0 -765 0 0 -765z"/>
		<path d="M8640 9435 l0 -765 765 0 765 0 0 765 0 765 -765 0 -765 0 0 -765z"/>
		<path d="M6840 7635 l0 -765 765 0 765 0 0 765 0 765 -765 0 -765 0 0 -765z"/>
		<path d="M8640 7635 l0 -765 765 0 765 0 0 765 0 765 -765 0 -765 0 0 -765z"/>
		<path d="M13538 6263 c-47 -71 -136 -201 -197 -290 l-111 -163 113 0 113 0 232 290 232 290 -148 0 -148 0 -86 -127z"/>
		<path d="M16465 6296 c-174 -77 -139 -342 49 -363 113 -13 216 76 216 186 0 55 -15 90 -58 134 -53 55 -140 73 -207 43z"/>
		<path d="M6150 4925 l0 -1275 393 0 c572 0 722 23 983 150 312 151 541 436 629 783 50 197 58 465 20 687 -84 489 -382 789 -884 890 -165 32 -301 40 -728 40 l-413 0 0 -1275z m1020 977 c312 -66 497 -197 616 -437 77 -157 111 -350 101 -580 -18 -409 -182 -691 -492 -845 -190 -94 -340 -120 -707 -120 l-238 0 0 1006 0 1006 313 -5 c260 -4 328 -8 407 -25z"/>
		<path d="M17508 5962 l-138 -46 0 -223 0 -223 -155 0 -155 0 0 -125 0 -125 155 0 154 0 4 -617 c3 -671 2 -657 62 -778 29 -60 102 -133 165 -165 122 -62 374 -65 489 -5 l31 16 0 123 0 123 -50 -25 c-107 -53 -265 -37 -334 34 -71 73 -70 62 -74 712 l-3 582 231 0 230 0 0 125 0 125 -230 0 -230 0 0 270 c0 149 -3 270 -7 269 -5 0 -70 -22 -145 -47z"/>
		<path d="M9220 5496 c-246 -52 -454 -215 -569 -445 -146 -290 -149 -722 -6 -1016 128 -264 353 -405 670 -422 214 -11 409 26 575 109 l105 53 3 143 3 142 -48 -34 c-245 -174 -578 -215 -812 -100 -172 85 -272 252 -297 497 l-7 67 647 0 646 0 0 128 c0 142 -18 283 -50 387 -76 246 -251 421 -480 480 -89 22 -296 28 -380 11z m261 -246 c125 -24 231 -106 288 -223 31 -62 61 -187 61 -253 l0 -34 -494 0 -494 0 15 68 c24 108 85 223 156 296 34 34 85 76 112 92 96 56 235 77 356 54z"/>
		<path d="M11350 5496 c-183 -40 -320 -132 -431 -290 l-49 -69 0 166 0 167 -145 0 -145 0 0 -1330 0 -1330 145 0 145 0 1 558 c0 527 1 556 17 532 86 -125 206 -219 333 -261 64 -21 92 -24 209 -23 159 0 238 17 355 74 292 142 465 484 465 920 0 197 -35 364 -104 505 -98 197 -239 317 -431 370 -83 22 -283 28 -365 11z m246 -260 c222 -69 354 -303 354 -625 0 -397 -161 -672 -431 -736 -82 -19 -176 -19 -258 0 -181 43 -331 197 -376 387 -21 89 -21 431 0 536 45 223 208 402 408 447 77 18 232 13 303 -9z"/>
		<path d="M13348 5500 c-397 -63 -650 -305 -735 -701 -22 -104 -25 -392 -5 -484 102 -467 434 -723 912 -702 325 15 559 143 716 393 86 137 132 301 141 504 23 508 -199 865 -602 971 -91 23 -330 34 -427 19z m294 -254 c105 -23 175 -61 253 -140 117 -118 170 -261 182 -491 23 -472 -193 -755 -577 -755 -289 0 -504 165 -582 447 -31 113 -31 382 0 496 64 234 222 396 433 442 84 18 208 18 291 1z"/>
		<path d="M15256 5495 c-172 -33 -293 -91 -391 -190 -101 -102 -142 -214 -132 -361 17 -239 131 -344 556 -513 169 -68 238 -107 293 -169 104 -116 64 -298 -80 -360 -113 -49 -322 -54 -472 -12 -81 23 -215 86 -268 126 l-33 25 3 -163 3 -163 81 -32 c137 -55 208 -67 404 -66 156 0 185 3 272 26 285 76 449 258 448 497 -1 135 -36 217 -134 315 -83 83 -172 132 -406 225 -85 34 -181 76 -213 93 -197 104 -213 326 -32 433 142 83 445 65 643 -41 l62 -33 0 148 0 148 -41 16 c-142 57 -405 81 -563 51z"/>
		<path d="M19138 5500 c-397 -63 -650 -305 -735 -701 -22 -104 -25 -392 -5 -484 102 -467 434 -723 912 -702 325 15 559 143 716 393 86 137 132 301 141 504 23 508 -199 865 -602 971 -91 23 -330 34 -427 19z m294 -254 c105 -23 175 -61 253 -140 117 -118 170 -261 182 -491 23 -472 -193 -755 -577 -755 -289 0 -504 165 -582 447 -31 113 -31 382 0 496 64 234 222 396 433 442 84 18 208 18 291 1z"/>
		<path d="M16390 4560 l0 -910 145 0 145 0 0 910 0 910 -145 0 -145 0 0 -910z"/>
		<path d="M12190 2438 c0 -398 0 -403 -19 -373 -30 48 -102 112 -156 138 -164 81 -400 55 -551 -59 -107 -81 -197 -225 -231 -371 -25 -109 -25 -339 0 -446 73 -311 331 -478 638 -413 119 26 224 95 288 193 l31 46 0 -111 0 -112 105 0 105 0 0 955 0 955 -105 0 -105 0 0 -402z m-247 -378 c87 -27 164 -96 209 -188 33 -66 33 -68 37 -236 5 -261 -25 -364 -139 -470 -80 -73 -164 -102 -277 -93 -216 16 -352 202 -353 484 -1 374 228 594 523 503z"/>
		<path d="M19210 2438 c0 -398 0 -403 -19 -373 -30 48 -102 112 -156 138 -164 81 -400 55 -551 -59 -107 -81 -197 -225 -231 -371 -25 -109 -25 -339 0 -446 73 -311 331 -478 638 -413 119 26 224 95 288 193 l31 46 0 -111 0 -112 105 0 105 0 0 955 0 955 -105 0 -105 0 0 -402z m-247 -378 c87 -27 164 -96 209 -188 33 -66 33 -68 37 -236 5 -261 -25 -364 -139 -470 -80 -73 -164 -102 -277 -93 -216 16 -352 202 -353 484 -1 374 228 594 523 503z"/>
		<path d="M4414 2756 c-97 -18 -137 -32 -217 -73 -78 -41 -172 -135 -205 -206 -82 -175 -41 -384 101 -512 70 -64 134 -104 338 -211 274 -144 344 -200 379 -308 18 -56 8 -154 -21 -207 -51 -91 -146 -136 -309 -146 -160 -9 -361 42 -480 122 l-50 34 0 -124 0 -125 38 -19 c99 -50 324 -87 482 -78 363 21 570 198 570 485 0 161 -89 300 -265 417 -44 29 -164 97 -267 150 -281 147 -333 201 -333 352 0 74 3 85 30 124 75 107 168 144 360 144 148 -1 221 -16 328 -68 l67 -33 0 118 0 118 -27 11 c-111 42 -386 60 -519 35z"/>
		<path d="M6130 2745 c0 -40 -26 -92 -54 -111 -42 -27 -110 -13 -230 46 -135 67 -199 75 -279 36 -35 -17 -64 -41 -82 -66 -29 -42 -55 -123 -55 -172 0 -27 2 -28 54 -28 l53 0 7 41 c4 26 17 52 37 71 27 28 35 30 79 26 31 -3 84 -22 142 -51 51 -25 111 -50 133 -56 156 -42 280 53 301 232 l7 57 -57 0 c-53 0 -56 -1 -56 -25z"/>
		<path d="M9198 2068 c-4 -605 -6 -679 -21 -733 -34 -116 -81 -185 -151 -223 -48 -26 -188 -23 -243 4 l-43 21 0 -104 0 -103 28 -11 c15 -6 65 -13 112 -16 203 -13 359 81 449 270 76 159 74 141 78 895 l4 672 -105 0 -105 0 -3 -672z"/>
		<path d="M15780 2645 l0 -95 260 0 260 0 0 -810 0 -810 105 0 105 0 0 810 0 810 260 0 260 0 0 95 0 95 -625 0 -625 0 0 -95z"/>
		<path d="M5700 2239 c-70 -12 -194 -53 -245 -82 l-40 -23 -3 -107 -3 -107 48 36 c106 82 259 129 388 121 115 -7 184 -56 220 -156 15 -43 32 -171 23 -171 -28 0 -437 -64 -481 -75 -146 -37 -256 -123 -297 -232 -34 -89 -38 -203 -11 -294 20 -63 31 -81 84 -134 89 -89 145 -109 302 -109 102 0 128 4 175 23 77 32 144 84 190 149 l40 55 0 -101 0 -102 106 0 105 0 -3 493 c-3 483 -4 493 -26 555 -40 111 -94 177 -183 223 -87 44 -253 60 -389 38z m388 -776 c-3 -102 -8 -126 -31 -177 -42 -90 -88 -140 -165 -178 -60 -30 -76 -33 -152 -33 -72 0 -93 4 -135 26 -68 35 -105 89 -112 165 -11 128 39 203 163 242 56 18 339 66 418 71 17 1 18 -6 14 -116z"/>
		<path d="M7118 2240 c-194 -33 -358 -151 -442 -317 -53 -106 -70 -194 -70 -358 0 -114 4 -166 18 -214 58 -209 208 -366 406 -425 145 -44 359 -27 494 37 211 101 328 295 343 568 21 377 -155 646 -460 704 -83 16 -211 18 -289 5z m247 -175 c188 -48 295 -228 295 -498 0 -257 -108 -433 -295 -482 -198 -51 -391 24 -485 188 -52 90 -64 147 -64 297 -1 141 12 208 56 294 26 51 102 132 153 161 89 53 228 69 340 40z"/>
		<path d="M13140 2239 c-70 -12 -194 -53 -245 -82 l-40 -23 -3 -107 -3 -107 48 36 c106 82 259 129 388 121 115 -7 184 -56 220 -156 15 -43 32 -171 23 -171 -28 0 -437 -64 -481 -75 -146 -37 -256 -123 -297 -232 -34 -89 -38 -203 -11 -294 20 -63 31 -81 84 -134 89 -89 145 -109 302 -109 102 0 128 4 175 23 77 32 144 84 190 149 l40 55 0 -101 0 -102 106 0 105 0 -3 493 c-3 483 -4 493 -26 555 -40 111 -94 177 -183 223 -87 44 -253 60 -389 38z m388 -776 c-3 -102 -8 -126 -31 -177 -42 -90 -88 -140 -165 -178 -60 -30 -76 -33 -152 -33 -72 0 -93 4 -135 26 -68 35 -105 89 -112 165 -11 128 39 203 163 242 56 18 339 66 418 71 17 1 18 -6 14 -116z"/>
		<path d="M14405 2233 c-145 -30 -264 -113 -315 -218 -21 -42 -25 -65 -25 -140 0 -78 4 -97 28 -147 47 -96 136 -156 367 -248 108 -43 162 -74 197 -111 47 -52 56 -126 22 -195 -16 -35 -32 -49 -77 -71 -52 -26 -66 -28 -172 -28 -131 0 -219 22 -315 81 l-55 33 0 -109 0 -109 58 -21 c132 -50 299 -63 440 -34 153 31 267 107 319 212 24 50 28 69 28 147 0 71 -5 100 -22 137 -45 98 -145 166 -375 258 -138 54 -191 89 -217 144 -44 91 -14 180 78 230 101 54 288 44 422 -23 l59 -29 0 102 0 102 -52 17 c-130 40 -269 47 -393 20z"/>
		<path d="M17320 2239 c-70 -12 -194 -53 -245 -82 l-40 -23 -3 -107 -3 -107 48 36 c106 82 259 129 388 121 115 -7 184 -56 220 -156 15 -43 32 -171 23 -171 -28 0 -437 -64 -481 -75 -146 -37 -256 -123 -297 -232 -34 -89 -38 -203 -11 -294 20 -63 31 -81 84 -134 89 -89 145 -109 302 -109 102 0 128 4 175 23 77 32 144 84 190 149 l40 55 0 -101 0 -102 106 0 105 0 -3 493 c-3 483 -4 493 -26 555 -40 111 -94 177 -183 223 -87 44 -253 60 -389 38z m388 -776 c-3 -102 -8 -126 -31 -177 -42 -90 -88 -140 -165 -178 -60 -30 -76 -33 -152 -33 -72 0 -93 4 -135 26 -68 35 -105 89 -112 165 -11 128 39 203 163 242 56 18 339 66 418 71 17 1 18 -6 14 -116z"/>
		<path d="M20210 2235 c-127 -31 -237 -103 -314 -206 -107 -142 -140 -251 -141 -459 0 -173 18 -263 75 -378 63 -126 166 -217 300 -263 55 -20 86 -23 205 -24 166 0 255 17 365 73 l75 37 3 103 3 102 -48 -34 c-70 -49 -125 -75 -210 -97 -182 -46 -354 -5 -454 109 -59 67 -109 207 -109 310 l0 22 455 0 455 0 0 94 c0 264 -91 465 -252 559 -103 60 -282 83 -408 52z m265 -184 c59 -26 98 -61 130 -116 26 -43 55 -150 55 -202 l0 -33 -351 0 c-329 0 -350 1 -345 18 3 9 10 37 16 62 37 142 146 258 274 291 55 14 167 4 221 -20z"/>
		<path d="M9812 1753 c4 -406 6 -476 21 -527 67 -228 228 -338 472 -323 146 9 258 67 335 175 l40 55 0 -101 0 -102 105 0 105 0 0 645 0 645 -105 0 -105 0 0 -399 c0 -227 -4 -421 -10 -452 -22 -116 -99 -222 -197 -270 -40 -19 -64 -23 -143 -24 -88 0 -99 2 -150 31 -62 35 -110 97 -137 177 -15 45 -18 109 -21 495 l-3 442 -105 0 -105 0 3 -467z"/>
		<path d="M21162 1753 c4 -406 6 -476 21 -527 67 -228 228 -338 472 -323 146 9 258 67 335 175 l40 55 0 -101 0 -102 105 0 105 0 0 645 0 645 -105 0 -105 0 0 -399 c0 -227 -4 -421 -10 -452 -22 -116 -99 -222 -197 -270 -40 -19 -64 -23 -143 -24 -88 0 -99 2 -150 31 -62 35 -110 97 -137 177 -15 45 -18 109 -21 495 l-3 442 -105 0 -105 0 3 -467z"/>
	</g>
</svg>
