<svg id="budget-color" enable-background="new 0 0 512 512" height="512" viewBox="0 0 512 512" width="512" xmlns="http://www.w3.org/2000/svg">
	<g clip-rule="evenodd" fill-rule="evenodd">
		<path d="m37.503 7.512h277.997c4.28 0 7.768 3.486 7.768 7.768v481.47c0 4.253-3.487 7.768-7.768 7.768h-277.997c-4.28 0-7.767-3.515-7.767-7.768v-481.471c-.001-4.281 3.487-7.767 7.767-7.767z" fill="#ffe8c8"/>
		<path d="m291.234 7.512h24.266c4.28 0 7.768 3.486 7.768 7.768v481.47c0 4.253-3.487 7.768-7.768 7.768h-24.266c4.28 0 7.768-3.515 7.768-7.768v-481.471c0-4.281-3.487-7.767-7.768-7.767z" fill="#fed1a3"/>
		<path d="m271.817 504.517h186.182c13.353 0 24.266-10.942 24.266-24.265v-236.781c0-13.351-10.913-24.265-24.266-24.265h-186.182c-13.352 0-24.265 10.914-24.265 24.265v236.781c.001 13.322 10.914 24.265 24.265 24.265z" fill="#80b4fb"/>
		<path d="m433.734 504.517h24.265c13.353 0 24.266-10.942 24.266-24.265v-236.781c0-13.351-10.913-24.265-24.266-24.265h-24.265c13.351 0 24.265 10.914 24.265 24.265v236.781c0 13.322-10.914 24.265-24.265 24.265z" fill="#61a2f9"/>
		<path d="m145.731 142.896c25.398 0 46.091-20.722 46.091-46.12 0-25.371-20.692-46.092-46.091-46.092s-46.121 20.721-46.121 46.092c0 25.399 20.722 46.12 46.121 46.12z" fill="#fd8fce"/>
		<path d="m207.271 142.896c25.399 0 46.121-20.722 46.121-46.12 0-25.371-20.722-46.092-46.121-46.092-25.398 0-46.092 20.721-46.092 46.092.001 25.399 20.694 46.12 46.092 46.12z" fill="#b1e4f9"/>
		<path d="m283.723 248.602h162.399c4.252 0 7.767 3.486 7.767 7.767v34.271c0 4.28-3.515 7.767-7.767 7.767h-162.399c-4.28 0-7.767-3.486-7.767-7.767v-34.271c0-4.281 3.486-7.767 7.767-7.767z" fill="#faf6f5"/>
		<path d="m421.857 248.602h24.265c4.252 0 7.767 3.486 7.767 7.767v34.271c0 4.28-3.515 7.767-7.767 7.767h-24.265c4.252 0 7.738-3.486 7.738-7.767v-34.271c.001-4.281-3.486-7.767-7.738-7.767z" fill="#dedaeb"/>
		<path d="m283.723 327.52h24.351c4.28 0 7.767 3.486 7.767 7.767v14.031c0 4.28-3.486 7.767-7.767 7.767h-24.351c-4.28 0-7.767-3.486-7.767-7.767v-14.031c0-4.281 3.486-7.767 7.767-7.767zm0 117.354h24.351c4.28 0 7.767 3.516 7.767 7.768v14.031c0 4.281-3.486 7.767-7.767 7.767h-24.351c-4.28 0-7.767-3.486-7.767-7.767v-14.031c0-4.252 3.486-7.768 7.767-7.768zm138.02 0h24.379c4.252 0 7.767 3.516 7.767 7.768v14.031c0 4.281-3.515 7.767-7.767 7.767h-24.379c-4.279 0-7.767-3.486-7.767-7.767v-14.031c.001-4.252 3.488-7.768 7.767-7.768zm-68.996 0h24.35c4.28 0 7.768 3.516 7.768 7.768v14.031c0 4.281-3.488 7.767-7.768 7.767h-24.35c-4.28 0-7.767-3.486-7.767-7.767v-14.031c0-4.252 3.487-7.768 7.767-7.768zm-69.024-58.677h24.351c4.28 0 7.767 3.515 7.767 7.767v14.031c0 4.281-3.486 7.768-7.767 7.768h-24.351c-4.28 0-7.767-3.486-7.767-7.768v-14.031c0-4.252 3.486-7.767 7.767-7.767zm138.02 0h24.379c4.252 0 7.767 3.515 7.767 7.767v14.031c0 4.281-3.515 7.768-7.767 7.768h-24.379c-4.279 0-7.767-3.486-7.767-7.768v-14.031c.001-4.252 3.488-7.767 7.767-7.767zm-68.996 0h24.35c4.28 0 7.768 3.515 7.768 7.767v14.031c0 4.281-3.488 7.768-7.768 7.768h-24.35c-4.28 0-7.767-3.486-7.767-7.768v-14.031c0-4.252 3.487-7.767 7.767-7.767zm68.996-58.677h24.379c4.252 0 7.767 3.486 7.767 7.767v14.031c0 4.28-3.515 7.767-7.767 7.767h-24.379c-4.279 0-7.767-3.486-7.767-7.767v-14.031c.001-4.281 3.488-7.767 7.767-7.767zm-68.996 0h24.35c4.28 0 7.768 3.486 7.768 7.767v14.031c0 4.28-3.488 7.767-7.768 7.767h-24.35c-4.28 0-7.767-3.486-7.767-7.767v-14.031c0-4.281 3.487-7.767 7.767-7.767z" fill="#375e7d"/>
	</g>
	<path d="m29.735 512c-4.138 0-7.512-3.346-7.512-7.483v-29.141c0-4.139 3.374-7.484 7.512-7.484 4.139 0 7.483 3.346 7.483 7.484v21.628h207.642c-3.033-4.875-4.791-10.629-4.791-16.752v-236.781c0-8.759 3.571-16.696 9.326-22.45 5.754-5.754 13.691-9.327 22.422-9.327h43.966v-141.082c0-4.167 3.346-7.512 7.484-7.512s7.512 3.345 7.512 7.512v141.081h127.22c8.759 0 16.696 3.573 22.451 9.327s9.326 13.691 9.326 22.45v236.781c0 8.73-3.571 16.668-9.326 22.422s-13.692 9.326-22.451 9.326h-428.264zm246.221-74.609h39.884c4.139 0 7.513 3.345 7.513 7.483v29.566c0 4.139-3.374 7.513-7.513 7.513h-39.884c-4.139 0-7.512-3.374-7.512-7.513v-29.566c0-4.139 3.373-7.483 7.512-7.483zm32.401 14.995h-24.917v14.57h24.918v-14.57zm105.62-14.995h39.912c4.139 0 7.483 3.345 7.483 7.483v29.566c0 4.139-3.345 7.513-7.483 7.513h-39.912c-4.139 0-7.483-3.374-7.483-7.513v-29.566c-.001-4.139 3.344-7.483 7.483-7.483zm32.4 14.995h-24.889v14.57h24.889zm-101.397-14.995h39.885c4.139 0 7.483 3.345 7.483 7.483v29.566c0 4.139-3.345 7.513-7.483 7.513h-39.885c-4.167 0-7.512-3.374-7.512-7.513v-29.566c.001-4.139 3.346-7.483 7.512-7.483zm32.373 14.995h-24.889v14.57h24.889zm-101.397-73.673h39.884c4.139 0 7.513 3.345 7.513 7.484v29.565c0 4.139-3.374 7.512-7.513 7.512h-39.884c-4.139 0-7.512-3.373-7.512-7.512v-29.565c0-4.139 3.373-7.484 7.512-7.484zm32.401 14.996h-24.917v14.542h24.918v-14.542zm105.62-14.996h39.912c4.139 0 7.483 3.345 7.483 7.484v29.565c0 4.139-3.345 7.512-7.483 7.512h-39.912c-4.139 0-7.483-3.373-7.483-7.512v-29.565c-.001-4.139 3.344-7.484 7.483-7.484zm32.4 14.996h-24.889v14.542h24.889zm-101.397-14.996h39.885c4.139 0 7.483 3.345 7.483 7.484v29.565c0 4.139-3.345 7.512-7.483 7.512h-39.885c-4.167 0-7.512-3.373-7.512-7.512v-29.565c.001-4.139 3.346-7.484 7.512-7.484zm32.373 14.996h-24.889v14.542h24.889zm-101.397-73.674h39.884c4.139 0 7.513 3.346 7.513 7.484v29.565c0 4.139-3.374 7.512-7.513 7.512h-39.884c-4.139 0-7.512-3.373-7.512-7.512v-29.564c0-4.139 3.373-7.485 7.512-7.485zm32.401 14.996h-24.917v14.541h24.918v-14.541zm105.62-14.996h39.912c4.139 0 7.483 3.346 7.483 7.484v29.565c0 4.139-3.345 7.512-7.483 7.512h-39.912c-4.139 0-7.483-3.373-7.483-7.512v-29.564c-.001-4.139 3.344-7.485 7.483-7.485zm32.4 14.996h-24.889v14.541h24.889zm-101.397-14.996h39.885c4.139 0 7.483 3.346 7.483 7.484v29.565c0 4.139-3.345 7.512-7.483 7.512h-39.885c-4.167 0-7.512-3.373-7.512-7.512v-29.564c.001-4.139 3.346-7.485 7.512-7.485zm32.373 14.996h-24.889v14.541h24.889zm-29.424-44.136c4.139 0 7.512 3.373 7.512 7.512 0 4.14-3.373 7.484-7.512 7.484h-71.973c-4.139 0-7.512-3.345-7.512-7.484v-49.805c0-4.139 3.373-7.483 7.512-7.483h177.933c4.139 0 7.483 3.345 7.483 7.483v49.805c0 4.14-3.345 7.484-7.483 7.484h-72.001c-4.139 0-7.483-3.345-7.483-7.484s3.345-7.512 7.483-7.512h64.489v-34.781h-162.937v34.781zm-196.472 139.069c-4.139 0-7.512-3.373-7.512-7.512s3.373-7.483 7.512-7.483h62.107c4.168 0 7.513 3.345 7.513 7.483 0 4.139-3.345 7.512-7.513 7.512zm0-67.947c-4.139 0-7.512-3.373-7.512-7.512s3.373-7.483 7.512-7.483h62.107c4.168 0 7.513 3.345 7.513 7.483 0 4.139-3.345 7.512-7.513 7.512zm0-67.948c-4.139 0-7.512-3.373-7.512-7.512s3.373-7.483 7.512-7.483h62.107c4.168 0 7.513 3.345 7.513 7.483 0 4.139-3.345 7.512-7.513 7.512zm0-67.946c-4.139 0-7.512-3.374-7.512-7.512 0-4.139 3.373-7.514 7.512-7.514h62.107c4.168 0 7.513 3.375 7.513 7.514 0 4.138-3.345 7.512-7.513 7.512zm-89.462 201.63c-2.92-2.92-2.92-7.653 0-10.602 2.92-2.92 7.682-2.92 10.602 0l10.715 10.715 26.73-26.73c2.92-2.92 7.682-2.92 10.602 0 2.92 2.948 2.92 7.682 0 10.602l-32.031 32.031c-2.92 2.948-7.682 2.948-10.602 0zm0-67.947c-2.92-2.92-2.92-7.682 0-10.602s7.682-2.92 10.602 0l10.715 10.715 26.73-26.73c2.92-2.92 7.682-2.92 10.602 0 2.92 2.919 2.92 7.682 0 10.602l-32.031 32.031c-2.92 2.948-7.682 2.948-10.602 0zm0-67.948c-2.92-2.92-2.92-7.682 0-10.602s7.682-2.92 10.602 0l10.715 10.715 26.73-26.73c2.92-2.92 7.682-2.92 10.602 0s2.92 7.682 0 10.602l-32.031 32.032c-2.92 2.948-7.682 2.948-10.602 0zm0-67.946c-2.92-2.92-2.92-7.683 0-10.602 2.92-2.921 7.682-2.921 10.602 0l10.715 10.715 26.73-26.732c2.92-2.919 7.682-2.919 10.602 0 2.92 2.92 2.92 7.683 0 10.602l-32.031 32.033c-2.92 2.919-7.682 2.919-10.602 0zm145.276-180.739c14.798 0 28.206 6.01 37.9 15.704s15.704 23.103 15.704 37.899c0 14.824-6.01 28.204-15.704 37.929-9.694 9.693-23.103 15.675-37.9 15.675-11.452 0-22.082-3.571-30.784-9.694-3.628 2.523-7.597 4.648-11.849 6.236-5.896 2.239-12.274 3.458-18.907 3.458-14.797 0-28.206-5.981-37.9-15.675-9.723-9.725-15.704-23.104-15.704-37.929 0-14.797 5.981-28.205 15.704-37.899 9.694-9.694 23.104-15.704 37.9-15.704 6.605 0 12.954 1.219 18.851 3.458 4.252 1.588 8.248 3.714 11.905 6.265 8.702-6.124 19.332-9.723 30.784-9.723zm-42.009 86.911c-7.256-9.128-11.594-20.722-11.594-33.308s4.338-24.151 11.622-33.308c-1.898-1.105-3.883-2.069-5.98-2.835-4.195-1.587-8.759-2.466-13.578-2.466-10.658 0-20.325 4.337-27.299 11.311-7.002 7.001-11.311 16.64-11.311 27.298s4.309 20.324 11.311 27.297c6.974 7.003 16.641 11.312 27.299 11.312 4.819 0 9.439-.851 13.635-2.466 2.069-.766 4.025-1.701 5.895-2.835zm69.308-60.605c-6.974-6.974-16.64-11.311-27.299-11.311-10.658 0-20.324 4.337-27.298 11.311-6.973 7.001-11.31 16.64-11.31 27.298s4.337 20.324 11.31 27.297c6.974 7.003 16.64 11.312 27.298 11.312 10.659 0 20.325-4.309 27.299-11.312 7.001-6.973 11.31-16.639 11.31-27.297s-4.309-20.298-11.31-27.298zm37.247 427.525h186.182c4.62 0 8.787-1.87 11.849-4.932 3.034-3.033 4.934-7.228 4.934-11.82v-236.781c0-4.62-1.9-8.815-4.934-11.849-3.062-3.033-7.229-4.933-11.849-4.933h-186.182c-4.592 0-8.787 1.899-11.82 4.933-3.062 3.033-4.933 7.229-4.933 11.849v236.781c0 4.592 1.871 8.787 4.933 11.82 3.033 3.062 7.229 4.932 11.82 4.932zm-234.598-55.588c0 4.139-3.345 7.483-7.483 7.483s-7.512-3.345-7.512-7.483v-433.904c0-4.139 3.374-7.512 7.511-7.512h293.532c4.139 0 7.512 3.373 7.512 7.512v29.112c0 4.139-3.373 7.513-7.512 7.513s-7.484-3.374-7.484-7.513v-21.628h-278.564z"/>
</svg>
