<svg id="budget" enable-background="new 0 0 512 512" height="512" viewBox="0 0 512 512" width="512" xmlns="http://www.w3.org/2000/svg">
	<path d="m29.735 512c-4.139 0-7.512-3.345-7.512-7.483v-29.141c0-4.139 3.373-7.484 7.512-7.484s7.483 3.346 7.483 7.484v21.629h207.641c-3.032-4.876-4.79-10.631-4.79-16.753v-236.781c0-8.759 3.571-16.695 9.326-22.45 5.754-5.755 13.691-9.327 22.422-9.327h43.967v-141.082c0-4.167 3.345-7.512 7.482-7.512 4.139 0 7.513 3.345 7.513 7.512v141.081h127.22c8.759 0 16.697 3.572 22.451 9.327s9.326 13.691 9.326 22.45v236.781c0 8.73-3.572 16.667-9.326 22.422s-13.692 9.326-22.451 9.326h-428.264zm246.221-74.609h39.885c4.139 0 7.512 3.346 7.512 7.483v29.566c0 4.139-3.373 7.512-7.512 7.512h-39.885c-4.139 0-7.512-3.373-7.512-7.512v-29.566c0-4.138 3.373-7.483 7.512-7.483zm32.4 14.996h-24.916v14.569h24.917v-14.569zm105.621-14.996h39.912c4.139 0 7.483 3.346 7.483 7.483v29.566c0 4.139-3.345 7.512-7.483 7.512h-39.912c-4.139 0-7.483-3.373-7.483-7.512v-29.566c-.001-4.138 3.344-7.483 7.483-7.483zm32.4 14.996h-24.889v14.569h24.889zm-101.397-14.996h39.885c4.139 0 7.483 3.346 7.483 7.483v29.566c0 4.139-3.345 7.512-7.483 7.512h-39.885c-4.167 0-7.512-3.373-7.512-7.512v-29.566c.001-4.138 3.346-7.483 7.512-7.483zm32.373 14.996h-24.889v14.569h24.889zm-101.397-73.674h39.885c4.139 0 7.512 3.345 7.512 7.484v29.565c0 4.139-3.373 7.512-7.512 7.512h-39.885c-4.139 0-7.512-3.373-7.512-7.512v-29.565c0-4.139 3.373-7.484 7.512-7.484zm32.4 14.996h-24.916v14.542h24.917v-14.542zm105.621-14.996h39.912c4.139 0 7.483 3.345 7.483 7.484v29.565c0 4.139-3.345 7.512-7.483 7.512h-39.912c-4.139 0-7.483-3.373-7.483-7.512v-29.565c-.001-4.139 3.344-7.484 7.483-7.484zm32.4 14.996h-24.889v14.542h24.889zm-101.397-14.996h39.885c4.139 0 7.483 3.345 7.483 7.484v29.565c0 4.139-3.345 7.512-7.483 7.512h-39.885c-4.167 0-7.512-3.373-7.512-7.512v-29.565c.001-4.139 3.346-7.484 7.512-7.484zm32.373 14.996h-24.889v14.542h24.889zm-101.397-73.673h39.885c4.139 0 7.512 3.344 7.512 7.482v29.566c0 4.138-3.373 7.512-7.512 7.512h-39.885c-4.139 0-7.512-3.374-7.512-7.512v-29.566c0-4.138 3.373-7.482 7.512-7.482zm32.4 14.994h-24.916v14.542h24.917v-14.542zm105.621-14.994h39.912c4.139 0 7.483 3.344 7.483 7.482v29.566c0 4.138-3.345 7.512-7.483 7.512h-39.912c-4.139 0-7.483-3.374-7.483-7.512v-29.566c-.001-4.138 3.344-7.482 7.483-7.482zm32.4 14.994h-24.889v14.542h24.889zm-101.397-14.994h39.885c4.139 0 7.483 3.344 7.483 7.482v29.566c0 4.138-3.345 7.512-7.483 7.512h-39.885c-4.167 0-7.512-3.374-7.512-7.512v-29.566c.001-4.138 3.346-7.482 7.512-7.482zm32.373 14.994h-24.889v14.542h24.889zm-29.424-44.135c4.139 0 7.512 3.373 7.512 7.512 0 4.14-3.373 7.484-7.512 7.484h-71.973c-4.139 0-7.512-3.345-7.512-7.484v-49.805c0-4.139 3.373-7.483 7.512-7.483h177.933c4.139 0 7.483 3.345 7.483 7.483v49.805c0 4.14-3.345 7.484-7.483 7.484h-72.001c-4.139 0-7.483-3.345-7.483-7.484s3.345-7.512 7.483-7.512h64.489v-34.781h-162.937v34.781zm-196.472 139.069c-4.139 0-7.512-3.373-7.512-7.512s3.373-7.483 7.512-7.483h62.107c4.168 0 7.513 3.345 7.513 7.483 0 4.139-3.345 7.512-7.513 7.512zm0-67.947c-4.139 0-7.512-3.373-7.512-7.512s3.373-7.483 7.512-7.483h62.107c4.168 0 7.513 3.345 7.513 7.483 0 4.139-3.345 7.512-7.513 7.512zm0-67.948c-4.139 0-7.512-3.373-7.512-7.512s3.373-7.483 7.512-7.483h62.107c4.168 0 7.513 3.345 7.513 7.483 0 4.139-3.345 7.512-7.513 7.512zm0-67.946c-4.139 0-7.512-3.373-7.512-7.512s3.373-7.513 7.512-7.513h62.107c4.168 0 7.513 3.374 7.513 7.513s-3.345 7.512-7.513 7.512zm-89.462 201.63c-2.92-2.919-2.92-7.653 0-10.602 2.92-2.919 7.682-2.919 10.602 0l10.715 10.715 26.73-26.73c2.92-2.92 7.683-2.92 10.602 0 2.92 2.948 2.92 7.682 0 10.602l-32.031 32.031c-2.92 2.948-7.682 2.948-10.602 0zm0-67.947c-2.92-2.92-2.92-7.682 0-10.602s7.682-2.92 10.602 0l10.715 10.715 26.73-26.73c2.92-2.92 7.683-2.92 10.602 0 2.92 2.92 2.92 7.682 0 10.602l-32.031 32.031c-2.92 2.948-7.682 2.948-10.602 0zm0-67.948c-2.92-2.92-2.92-7.683 0-10.602 2.92-2.92 7.682-2.92 10.602 0l10.715 10.715 26.73-26.73c2.92-2.92 7.683-2.92 10.602 0 2.92 2.919 2.92 7.682 0 10.602l-32.031 32.032c-2.92 2.948-7.682 2.948-10.602 0zm0-67.946c-2.92-2.92-2.92-7.682 0-10.602 2.92-2.921 7.682-2.921 10.602 0l10.715 10.715 26.73-26.732c2.92-2.92 7.683-2.92 10.602 0 2.92 2.919 2.92 7.682 0 10.602l-32.031 32.032c-2.92 2.92-7.682 2.92-10.602 0zm145.276-180.739c14.798 0 28.206 6.01 37.9 15.704s15.704 23.102 15.704 37.898c0 14.826-6.01 28.205-15.704 37.929-9.694 9.695-23.103 15.676-37.9 15.676-11.452 0-22.082-3.571-30.784-9.694-3.629 2.522-7.597 4.65-11.849 6.236-5.896 2.239-12.274 3.458-18.907 3.458-14.797 0-28.206-5.98-37.9-15.676-9.723-9.724-15.704-23.103-15.704-37.929 0-14.797 5.981-28.204 15.704-37.898 9.694-9.694 23.104-15.704 37.9-15.704 6.605 0 12.954 1.219 18.851 3.458 4.252 1.588 8.249 3.714 11.905 6.265 8.702-6.123 19.332-9.723 30.784-9.723zm-42.009 86.911c-7.257-9.129-11.594-20.723-11.594-33.309 0-12.585 4.337-24.15 11.622-33.307-1.898-1.105-3.883-2.069-5.98-2.834-4.195-1.588-8.76-2.467-13.578-2.467-10.658 0-20.325 4.337-27.299 11.311-7.001 7.002-11.31 16.639-11.31 27.297 0 10.659 4.309 20.325 11.31 27.299 6.974 7.002 16.641 11.311 27.299 11.311 4.818 0 9.439-.851 13.635-2.466 2.069-.766 4.025-1.701 5.895-2.835zm69.308-60.605c-6.974-6.974-16.64-11.311-27.299-11.311-10.658 0-20.324 4.337-27.298 11.311-6.973 7.002-11.311 16.639-11.311 27.297 0 10.659 4.338 20.325 11.311 27.299 6.974 7.002 16.64 11.311 27.298 11.311 10.659 0 20.325-4.309 27.299-11.311 7.001-6.974 11.311-16.64 11.311-27.299s-4.31-20.296-11.311-27.297zm37.247 427.526h186.182c4.62 0 8.787-1.871 11.849-4.933 3.034-3.033 4.934-7.228 4.934-11.82v-236.781c0-4.62-1.9-8.815-4.934-11.849-3.062-3.033-7.229-4.933-11.849-4.933h-186.182c-4.592 0-8.787 1.899-11.82 4.933-3.062 3.033-4.933 7.229-4.933 11.849v236.781c0 4.592 1.871 8.787 4.933 11.82 3.033 3.062 7.229 4.933 11.82 4.933zm-234.598-55.589c0 4.139-3.345 7.483-7.483 7.483-4.139 0-7.512-3.345-7.512-7.483v-433.904c0-4.138 3.373-7.512 7.511-7.512h293.531c4.139 0 7.513 3.374 7.513 7.512v29.112c0 4.139-3.374 7.513-7.513 7.513-4.138 0-7.482-3.374-7.482-7.513v-21.629h-278.565z"/>
</svg>
