<svg id="index-color" enable-background="new 0 0 511.972 511.972" height="512" viewBox="0 0 511.972 511.972" width="512" xmlns="http://www.w3.org/2000/svg">
	<path d="m455.357 118.733-187.167-107.98c-7.552-4.358-16.855-4.356-24.407.003l-187.019 107.976c-7.554 4.361-12.207 12.42-12.207 21.143l199.226 164.938c7.551 4.359 16.854 4.361 24.407.004l199.38-164.937c.001-8.725-4.655-16.786-12.213-21.147z" fill="#b3e59f"/>
	<path d="m256.142 504.465c4.161-.026 8.319-1.095 12.048-3.246l187.167-107.981c7.558-4.36 12.214-12.422 12.214-21.147v-232.211c0-4.355-1.162-8.544-3.264-12.191l-208.165 120.159z" fill="#ffe07d"/>
	<path d="m255.829 504.465c-4.161-.026-8.319-1.095-12.048-3.246l-187.166-107.981c-7.558-4.36-12.214-12.422-12.214-21.147v-232.211c0-4.355 1.162-8.544 3.264-12.191l208.164 120.159z" fill="#ff8086"/>
	<path d="m459.027 112.237-187.167-107.981c-9.84-5.677-22.066-5.675-31.905.005l-187.019 107.976c-9.842 5.682-15.957 16.272-15.957 27.638v232.222c0 11.366 6.114 21.956 15.957 27.638l187.019 107.975c4.921 2.841 10.438 4.262 15.957 4.262 5.514 0 11.029-1.419 15.948-4.256l57.689-33.282c.526-.226 1.016-.515 1.471-.849l69.371-40.022c.341-.166.671-.352.981-.566l57.654-33.262c9.848-5.682 15.965-16.274 15.965-27.643v-232.212c.001-11.369-6.116-21.961-15.964-27.643zm-124.934 255.509v-69.484l55.528-32.059v69.484zm55.528-14.739v69.452l-55.528 32.035v-69.428zm-267.27-17.32v-69.484l55.528 32.059v69.484zm55.528 49.38v69.484l-55.528-32.059v-69.484zm-125.9-245.192c0-.363.013-.724.036-1.084l55.335 31.948v69.484l-55.372-31.969v-68.379zm133.479-86.829 55.528 32.059-55.489 32.037-55.528-32.059zm70.528 40.719 55.489 32.037-55.489 32.037-55.489-32.037zm125.987-8.665-55.498 32.042-55.489-32.037 55.477-32.03zm77.983 53.692c.023.361.036.724.036 1.089v68.374l-55.372 31.969v-36.116c0-4.142-3.358-7.5-7.5-7.5s-7.5 3.358-7.5 7.5v44.776l-55.528 32.059v-69.483zm-203.97 100.441-55.489-32.037 55.489-32.037 55.489 32.037zm-7.422 13.035v69.483l-55.685-32.149v-69.483zm15-.09 55.529-32.06v69.483l-55.529 32.06zm62.911-53.642-55.489-32.037 55.489-32.037 55.489 32.037zm-85.489-32.037-55.489 32.037-55.49-32.037 55.489-32.037zm-118.635 12.9 55.528 32.059v69.483l-55.528-32.059zm70.528 127.524 55.685 32.149v69.484l-55.685-32.15zm70.685 32.059 55.529-32.06v69.484l-55.529 32.06zm141.057-81.439 55.372-31.969v69.483l-55.372 31.969zm47.831-131.74-55.488 32.036-55.489-32.037 55.503-32.045 54.552 31.473c.315.181.622.374.922.573zm-204.997-108.551c5.214-3.011 11.694-3.013 16.909-.002l47.093 27.169-55.471 32.027-55.528-32.059zm-132.486 76.491 55.528 32.059-55.489 32.037-55.492-32.038c.3-.2.606-.392.921-.573zm-62.99 278.354v-59.719l9.119 5.265c1.181.682 2.471 1.006 3.743 1.006 2.592 0 5.113-1.346 6.502-3.751 2.071-3.587.842-8.174-2.745-10.245l-16.619-9.595v-69.483l55.372 31.969v69.484l-10.767-6.216c-3.587-2.073-8.174-.842-10.245 2.745s-.842 8.174 2.745 10.245l18.267 10.546v69.484l-46.915-27.086c-5.216-3.013-8.457-8.626-8.457-14.649zm140.9 91.113v-69.484l55.685 32.15v69.425c-.375-.181-.746-.372-1.109-.582zm71.485 31.513c-.263.152-.531.29-.8.427v-69.363l55.529-32.06v69.422zm187.167-107.981-46.91 27.064v-69.458l55.372-31.969v59.713c-.001 6.025-3.243 11.639-8.462 14.65z"/>
</svg>
