<svg id="logo-color" enable-background="new 0 0 512 512" height="512" viewBox="0 0 512 512" width="512" xmlns="http://www.w3.org/2000/svg">
	<path d="m461.397 114.61-192.824-111.244c-7.781-4.489-17.365-4.488-25.144.003l-192.672 111.24c-3.921 2.264-7.083 5.495-9.256 9.293l201.928 182.412c7.779 4.491 17.364 4.493 25.144.004l202.048-182.479c-2.173-3.771-5.324-6.979-9.224-9.229z" fill="#b3e59f"/>
	<path d="m417.695 182.957 13.786-11.405-86.011-49.659 64.251-37.096-16.776-9.678-64.245 37.092-55.851-32.246 64.223-37.081-16.776-9.678-64.216 37.077-64.274-37.109-16.77 9.682 64.274 37.109-55.848 32.245-64.274-37.11-16.77 9.682 64.274 37.11-86.026 49.669 13.78 11.409 89.016-51.395 55.848 32.245-83.981 48.486c-4.012 2.317-5.387 7.442-3.07 11.454 1.556 2.694 4.372 4.192 7.27 4.192 1.425 0 2.866-.36 4.184-1.122l92.366-53.328 101.915 58.842 13.785-11.404-98.93-57.12 55.851-32.245zm-161.616-28.819-55.848-32.245 55.848-32.245 55.85 32.245z" fill="#95d6a4"/>
	<path d="m256.161 512c4.287-.027 8.57-1.128 12.412-3.345l192.824-111.244c7.786-4.492 12.583-12.797 12.583-21.786v-239.229c0-4.487-1.197-8.802-3.363-12.559l-214.455 123.79-25.828 32.706z" fill="#ffe07d"/>
	<path d="m255.839 512c-4.287-.027-8.57-1.128-12.412-3.345l-192.824-111.244c-7.786-4.492-12.583-12.797-12.583-21.786v-239.229c0-4.487 1.316-8.737 3.482-12.494l214.337 123.725z" fill="#ff8086"/>
	<path d="m473.98 291.044-64.115 37.016v-70.068l64.115-37.018v-19.364l-64.115 37.018v-79.723l-16.768 9.679v79.726l-55.895 32.271v-79.733l-16.768 9.679v79.735l-64.273 37.109v19.365l64.273-37.109v70.067l-64.273 37.108v19.365l64.273-37.108v79.677l16.768-9.673v-79.685l55.895-32.271v79.708l16.768-9.673v-79.715l64.115-37.017zm-80.883 46.698-55.895 32.271v-70.067l55.895-32.272z" fill="#ffd064"/>
	<path d="m38.02 310.409 64.115 37.017v79.715l16.768 9.673v-79.708l55.895 32.271v79.685l16.768 9.673v-79.677l64.273 37.108v-19.365l-64.273-37.108v-70.067l64.273 37.109v-19.365l-64.273-37.109v-79.735l-16.768-9.679v79.733l-55.895-32.271v-79.726l-16.768-9.679v79.723l-64.115-37.017v19.365l64.115 37.018v70.068l-64.115-37.017zm80.883-42.735 55.895 32.272v70.067l-55.895-32.271z" fill="#e5646e"/>
</svg>
