<svg version="1.1" id="purchase-color" xmlns="http://www.w3.org/2000/svg" xmlns:xlink="http://www.w3.org/1999/xlink" x="0px" y="0px" viewBox="0 0 512.004 512.004" style="enable-background:new 0 0 512.004 512.004;" xml:space="preserve">
	<rect x="256.002" y="7.5" style="fill:#ED5565;" width="160" height="177"/>
	<polygon style="fill:#48CFAD;" points="286.005,94.493 286.005,184.499 211.005,184.499 155.666,184.499 156.005,94.493 256.005,94.493 "/>
	<path style="fill:#656D78;" d="M391.005,454.499c13.81,0,25,11.19,25,25s-11.19,25-25,25s-25-11.19-25-25 S377.196,454.499,391.005,454.499z"/>
	<path style="fill:#656D78;" d="M201.005,454.499c13.81,0,25,11.19,25,25s-11.19,25-25,25s-25-11.19-25-25 S187.195,454.499,201.005,454.499z"/>
	<polygon style="fill:#E6E9ED;" points="416.005,184.499 396.005,184.499 306.005,184.499 286.005,184.499 211.005,184.499 155.666,184.499 116.005,184.499 115.996,184.499 139.815,284.499 166.005,394.499 231.005,392.179 306.005,389.499 381.005,386.819 446.005,384.499 461.005,284.499 476.005,184.499 "/>
	<polygon style="fill:#CCD1D9;" points="446.002,184.499 431.002,284.499 416.002,385.57 446.005,384.499 461.005,284.499 476.005,184.499 "/>
	<rect x="256.002" y="94.49" style="fill:#37BC9B;" width="30" height="90.01"/>
	<rect x="386.002" y="7.5" style="fill:#DA4453;" width="30" height="177"/>
	<path d="M481.681,179.6c-1.42-1.65-3.49-2.6-5.68-2.6h-52.5V7.5c0-4.142-3.357-7.5-7.5-7.5h-160c-4.142,0-7.5,3.358-7.5,7.5v79.49 h-42.499c-4.14,0-7.5,3.37-7.5,7.5c0,4.14,3.36,7.5,7.5,7.5h49.932c0.023,0,0.045,0.004,0.068,0.004 c0.023,0,0.045-0.003,0.068-0.004h22.433V177h-67.41c-0.032,0-0.063,0-0.095,0h-47.803l0.277-75.01h12.53c4.13,0,7.5-3.36,7.5-7.5 c0-4.13-3.37-7.5-7.5-7.5h-20c-1.138,0-2.213,0.262-3.18,0.717c-2.542,1.193-4.311,3.764-4.323,6.758L148.194,177h-26.271 L97.102,72.761c-0.015-0.063-0.037-0.121-0.053-0.183c-0.041-0.154-0.083-0.307-0.134-0.457c-0.031-0.095-0.067-0.187-0.102-0.28 c-0.051-0.134-0.103-0.268-0.162-0.398c-0.047-0.106-0.099-0.21-0.15-0.313c-0.056-0.11-0.111-0.219-0.172-0.326 c-0.064-0.115-0.133-0.226-0.204-0.336c-0.058-0.09-0.116-0.18-0.177-0.267c-0.081-0.115-0.165-0.226-0.251-0.335 c-0.062-0.079-0.124-0.157-0.189-0.233c-0.091-0.106-0.186-0.209-0.282-0.31c-0.071-0.075-0.143-0.148-0.216-0.219 c-0.096-0.092-0.195-0.181-0.295-0.268c-0.084-0.073-0.169-0.145-0.257-0.214c-0.096-0.076-0.195-0.149-0.295-0.22 c-0.099-0.071-0.199-0.14-0.302-0.207c-0.096-0.062-0.194-0.12-0.293-0.177c-0.111-0.064-0.223-0.127-0.337-0.186 c-0.1-0.051-0.201-0.099-0.302-0.146c-0.116-0.054-0.233-0.105-0.353-0.153c-0.11-0.044-0.221-0.083-0.334-0.122 c-0.113-0.038-0.226-0.077-0.342-0.11c-0.128-0.038-0.259-0.069-0.39-0.1c-0.102-0.024-0.204-0.048-0.307-0.067 c-0.15-0.028-0.302-0.05-0.455-0.069c-0.089-0.011-0.178-0.023-0.268-0.031c-0.166-0.015-0.333-0.022-0.5-0.025 C89.921,67.008,89.864,67,89.806,67H36.001c-4.142,0-7.5,3.358-7.5,7.5s3.358,7.5,7.5,7.5h47.881l73.772,309.813 c-11.419,6.435-19.153,18.671-19.153,32.687c0,19.901,15.585,36.223,35.189,37.422c-3.277,5.072-5.188,11.106-5.188,17.582 c0,17.92,14.579,32.5,32.5,32.5c17.92,0,32.499-14.579,32.499-32.5c0-6.442-1.892-12.448-5.138-17.504H363.64 c-3.246,5.057-5.139,11.062-5.139,17.504c0,17.92,14.579,32.5,32.5,32.5s32.5-14.579,32.5-32.5c0-6.442-1.893-12.448-5.139-17.504 h27.637c4.143,0,7.5-3.358,7.5-7.5s-3.357-7.5-7.5-7.5H176.001c-0.004,0-0.008,0.001-0.013,0.001 c-12.401-0.007-22.487-10.098-22.487-22.5c0-12.406,10.093-22.499,22.499-22.499c0.888,0,1.735-0.162,2.525-0.445l267.746-9.563 c3.601-0.13,6.61-2.81,7.141-6.38l4.43-29.5c0.3-1.98-0.2-3.96-1.39-5.57c-1.19-1.61-2.94-2.66-4.92-2.95 c-0.37-0.06-0.75-0.09-1.12-0.09c-3.681,0-6.86,2.75-7.41,6.39l-3.5,23.34l-50.406,1.799l6.452-87.031h56.747l-4.833,32.222 c-0.3,1.98,0.189,3.96,1.38,5.57c1.19,1.61,2.94,2.66,4.92,2.96c0.37,0.06,0.75,0.08,1.12,0.08c3.68,0,6.86-2.74,7.41-6.38 l21.13-140.84C483.742,183.45,483.111,181.26,481.681,179.6z M391.001,497c-9.649,0-17.5-7.85-17.5-17.5 c0-9.649,7.851-17.499,17.5-17.499s17.5,7.85,17.5,17.499C408.501,489.15,400.651,497,391.001,497z M201.001,497 c-9.649,0-17.5-7.85-17.5-17.5c0-9.649,7.85-17.499,17.5-17.499c9.649,0,17.499,7.85,17.499,17.499 C218.501,489.15,210.651,497,201.001,497z M293.501,94.491L293.501,94.491c0-0.398-0.04-0.785-0.1-1.166 c-0.359-2.287-1.746-4.229-3.68-5.337c-1.098-0.631-2.365-0.998-3.721-0.998h-22.5V15h145v162H306.039 c-0.014,0-0.026-0.002-0.039-0.002S305.975,177,305.961,177h-12.459V94.493C293.501,94.493,293.501,94.492,293.501,94.491z M237.791,384.429l-8.902-92.431H298.5v90.264L237.791,384.429z M171.876,386.781l-22.57-94.783h64.513l8.954,92.966 L171.876,386.781z M227.443,276.998L219.257,192h79.242v84.998H227.443z M313.499,192h74.421l-6.302,84.998h-68.119V192z M204.188,192l8.187,84.998h-66.64L125.495,192H204.188z M374.013,379.567l-60.514,2.16v-89.729h67.007L374.013,379.567z M396.66,276.998L402.962,192h64.329l-12.748,84.998H396.66z"/>
</svg>
