<svg id="report" enable-background="new 0 0 512 512" height="512" viewBox="0 0 512 512" width="512" xmlns="http://www.w3.org/2000/svg">
	<path d="m474.5 383.5h-33v-255.627c0-4.142-3.357-7.5-7.5-7.5s-7.5 3.358-7.5 7.5v255.627h-85v-298.5c0-9.098 7.402-16.5 16.5-16.5h52c9.098 0 16.5 7.402 16.5 16.5v10.5c0 4.142 3.357 7.5 7.5 7.5s7.5-3.358 7.5-7.5v-10.5c0-17.369-14.131-31.5-31.5-31.5h-52c-17.369 0-31.5 14.131-31.5 31.5v298.5h-13v-233.5c0-17.369-14.131-31.5-31.5-31.5h-52c-17.369 0-31.5 14.131-31.5 31.5v233.5h-13v-166.5c0-17.369-14.131-31.5-31.5-31.5h-52c-17.369 0-31.5 14.131-31.5 31.5v39c0 4.142 3.357 7.5 7.5 7.5s7.5-3.358 7.5-7.5v-39c0-9.098 7.402-16.5 16.5-16.5h52c9.098 0 16.5 7.402 16.5 16.5v166.5h-85v-95.721c0-4.142-3.357-7.5-7.5-7.5s-7.5 3.358-7.5 7.5v95.721h-33c-20.678 0-37.5 16.822-37.5 37.5s16.822 37.5 37.5 37.5h90.5c4.143 0 7.5-3.358 7.5-7.5s-3.357-7.5-7.5-7.5h-90.5c-12.406 0-22.5-10.093-22.5-22.5s10.094-22.5 22.5-22.5h437c12.406 0 22.5 10.093 22.5 22.5s-10.094 22.5-22.5 22.5h-314.494c-4.143 0-7.5 3.358-7.5 7.5s3.357 7.5 7.5 7.5h314.494c20.678 0 37.5-16.822 37.5-37.5s-16.822-37.5-37.5-37.5zm-261 0v-233.5c0-9.098 7.402-16.5 16.5-16.5h52c9.098 0 16.5 7.402 16.5 16.5v233.5z"/>
</svg>
